<svg width="533" height="254" viewBox="0 0 533 254" fill="none" xmlns="http://www.w3.org/2000/svg">
<path d="M0 12C0 5.37258 5.37258 0 12 0H38C44.6274 0 50 5.37258 50 12V242C50 248.627 44.6274 254 38 254H12C5.37258 254 0 248.627 0 242V12Z" fill="#D9D9D9"/>
<path d="M58 12C58 5.37258 63.3726 0 70 0H106C112.627 0 118 5.37258 118 12V181C118 187.627 112.627 193 106 193H70C63.3726 193 58 187.627 58 181V12Z" fill="#D9D9D9"/>
<path d="M351 12C351 5.37258 356.373 0 363 0H399C405.627 0 411 5.37258 411 12V65C411 71.6274 405.627 77 399 77H363C356.373 77 351 71.6274 351 65V12Z" fill="#D9D9D9"/>
<path d="M419 12C419 5.37258 424.373 0 431 0H521C527.627 0 533 5.37258 533 12V65C533 71.6274 527.627 77 521 77H431C424.373 77 419 71.6274 419 65V12Z" fill="#D9D9D9"/>
<path d="M351 97C351 90.3726 356.373 85 363 85H399C405.627 85 411 90.3726 411 97V242C411 248.627 405.627 254 399 254H363C356.373 254 351 248.627 351 242V97Z" fill="#D9D9D9"/>
<path d="M283 97C283 90.3726 288.373 85 295 85H331C337.627 85 343 90.3726 343 97V242C343 248.627 337.627 254 331 254H295C288.373 254 283 248.627 283 242V97Z" fill="#D9D9D9"/>
<path d="M126 213C126 206.373 131.373 201 138 201H184C190.627 201 196 206.373 196 213V242C196 248.627 190.627 254 184 254H138C131.373 254 126 248.627 126 242V213Z" fill="#D9D9D9"/>
<path d="M204 213C204 206.373 209.373 201 216 201H263C269.627 201 275 206.373 275 213V242C275 248.627 269.627 254 263 254H216C209.373 254 204 248.627 204 242V213Z" fill="#D9D9D9"/>
<path d="M126 155C126 148.373 131.373 143 138 143H263C269.627 143 275 148.373 275 155V181C275 187.627 269.627 193 263 193H138C131.373 193 126 187.627 126 181V155Z" fill="#D9D9D9"/>
<path d="M126 97C126 90.3726 131.373 85 138 85H263C269.627 85 275 90.3726 275 97V123C275 129.627 269.627 135 263 135H138C131.373 135 126 129.627 126 123V97Z" fill="#D9D9D9"/>
<path d="M126 12C126 5.37258 131.373 0 138 0H331C337.627 0 343 5.37258 343 12V65C343 71.6274 337.627 77 331 77H138C131.373 77 126 71.6274 126 65V12Z" fill="#D9D9D9"/>
<path d="M419 97C419 90.3726 424.373 85 431 85H521C527.627 85 533 90.3726 533 97V242C533 248.627 527.627 254 521 254H431C424.373 254 419 248.627 419 242V97Z" fill="#D9D9D9"/>
<path d="M58 213C58 206.373 63.3726 201 70 201H106C112.627 201 118 206.373 118 213V242C118 248.627 112.627 254 106 254H70C63.3726 254 58 248.627 58 242V213Z" fill="#D9D9D9"/>
</svg>
