<svg width="292" height="539" viewBox="0 0 292 539" fill="none" xmlns="http://www.w3.org/2000/svg">
<path opacity="0.05" d="M183.569 70.1609C198.558 73.8993 210.416 85.3502 214.674 100.201L290.306 363.962C294.565 378.811 290.576 394.806 279.845 405.919L89.2383 603.298C78.5069 614.411 62.6607 618.955 47.6699 615.218L-218.569 548.837C-233.558 545.099 -245.416 533.648 -249.674 518.797L-325.306 255.037C-329.565 240.187 -325.577 224.192 -314.845 213.079L-124.239 15.6999C-113.507 4.58721 -97.661 0.0428899 -82.6702 3.77982L183.569 70.1609Z" stroke="url(#paint0_linear_3432_1784)" stroke-width="5"/>
<path opacity="0.1" d="M166.34 74.4808C180.764 77.5479 192.457 88.0766 197.014 102.102L277.951 351.2C282.509 365.224 279.237 380.616 269.369 391.575L94.1128 586.217C84.2456 597.176 69.2802 602.039 54.8551 598.973L-201.339 544.517C-215.762 541.45 -227.456 530.922 -232.012 516.896L-312.949 267.798C-317.507 253.774 -314.235 238.382 -304.368 227.423L-129.111 32.7811C-119.244 21.8225 -104.279 16.9595 -89.8536 20.025L166.34 74.4808Z" stroke="url(#paint1_linear_3432_1784)" stroke-width="5"/>
<path opacity="0.14" d="M149.668 79.6988C163.498 82.1386 174.978 91.7712 179.781 104.969L265.096 339.371C269.901 352.568 267.298 367.326 258.271 378.085L97.9306 569.17C88.9033 579.929 74.8208 585.055 60.9891 582.617L-184.666 539.301C-198.497 536.861 -209.976 527.228 -214.78 514.03L-300.095 279.629C-304.899 266.432 -302.296 251.673 -293.269 240.915L-132.929 49.8291C-123.902 39.0707 -109.819 33.9446 -95.9876 36.3829L149.668 79.6988Z" stroke="url(#paint2_linear_3432_1784)" stroke-width="5"/>
<path opacity="0.19" d="M133.592 85.7792C146.804 87.637 158.023 96.4018 163.02 108.773L251.792 328.49C256.791 340.86 254.809 354.959 246.595 365.472L100.7 552.209C92.486 562.723 79.2859 568.056 66.0729 566.2L-168.594 533.22C-181.806 531.362 -193.024 522.597 -198.022 510.226L-286.793 290.508C-291.792 278.138 -289.81 264.04 -281.596 253.526L-135.702 66.7896C-127.487 56.276 -114.287 50.9424 -101.074 52.7988L133.592 85.7792Z" stroke="url(#paint3_linear_3432_1784)" stroke-width="5"/>
<path opacity="0.23" d="M118.156 92.6869C130.726 94.0091 141.637 101.937 146.778 113.484L238.091 318.576C243.233 330.122 241.823 343.536 234.393 353.762L102.435 535.386C95.0058 545.612 82.6843 551.098 70.113 549.778L-153.158 526.311C-165.728 524.989 -176.639 517.061 -181.78 505.513L-273.093 300.422C-278.235 288.875 -276.824 275.462 -269.395 265.236L-137.437 83.6113C-130.008 73.3856 -117.686 67.8993 -105.115 69.22L118.156 92.6869Z" stroke="url(#paint4_linear_3432_1784)" stroke-width="5"/>
<path opacity="0.28" d="M103.396 100.386C115.304 101.219 125.865 108.342 131.097 119.072L224.045 309.642C229.279 320.371 228.39 333.078 221.714 342.975L103.15 518.754C96.4743 528.651 85.0253 534.235 73.1161 533.403L-138.396 518.612C-150.304 517.779 -160.864 510.656 -166.097 499.926L-259.044 309.356C-264.278 298.627 -263.389 285.92 -256.714 276.023L-138.149 100.244C-131.474 90.3474 -120.025 84.7629 -108.116 85.5952L103.396 100.386Z" stroke="url(#paint5_linear_3432_1784)" stroke-width="5"/>
<path opacity="0.32" d="M89.3468 108.836C100.575 109.229 110.742 115.582 116.017 125.503L209.703 301.7C214.978 311.62 214.559 323.602 208.605 333.13L102.857 502.363C96.9032 511.891 86.3176 517.519 75.0884 517.128L-124.346 510.163C-135.574 509.77 -145.741 503.417 -151.016 493.496L-244.702 317.299C-249.977 307.379 -249.558 295.397 -243.605 285.869L-137.856 116.636C-131.902 107.108 -121.317 101.48 -110.088 101.871L89.3468 108.836Z" stroke="url(#paint6_linear_3432_1784)" stroke-width="5"/>
<path opacity="0.37" d="M76.0426 117.996C86.5757 117.997 96.3091 123.616 101.576 132.739L195.118 294.758C200.385 303.88 200.385 315.12 195.118 324.242L101.576 486.261C96.3097 495.383 86.5759 501.003 76.0421 501.003L-111.042 501.003C-121.575 501.002 -131.308 495.383 -136.575 486.26L-230.117 324.241C-235.384 315.119 -235.383 303.879 -230.117 294.757L-136.575 132.738C-131.309 123.616 -121.575 117.996 -111.041 117.996L76.0426 117.996Z" stroke="url(#paint7_linear_3432_1784)" stroke-width="5"/>
<path opacity="0.41" d="M63.5158 127.824C73.3407 127.481 82.6028 132.406 87.8123 140.744L180.342 288.823C185.553 297.159 185.918 307.643 181.303 316.324L99.3281 470.496C94.7128 479.176 85.8165 484.736 75.991 485.079L-98.5141 491.173C-108.339 491.515 -117.601 486.591 -122.811 478.253L-215.341 330.174C-220.551 321.837 -220.917 311.353 -216.301 302.673L-134.326 148.5C-129.711 139.82 -120.815 134.261 -110.989 133.917L63.5158 127.824Z" stroke="url(#paint8_linear_3432_1784)" stroke-width="5"/>
<path opacity="0.46" d="M51.7941 138.279C60.9006 137.642 69.6554 141.912 74.7601 149.481L165.427 283.901C170.533 291.468 171.212 301.186 167.21 309.39L96.133 455.12C92.1312 463.325 84.0556 468.772 74.9486 469.409L-86.7957 480.72C-95.9021 481.356 -104.657 477.086 -109.762 469.517L-200.429 335.098C-205.534 327.53 -206.213 317.812 -202.212 309.608L-131.135 163.878C-127.133 155.673 -119.057 150.226 -109.95 149.589L51.7941 138.279Z" stroke="url(#paint9_linear_3432_1784)" stroke-width="5"/>
<path opacity="0.5" d="M40.9102 149.313C49.2906 148.432 57.5046 152.09 62.4576 158.907L150.43 279.99C155.383 286.807 156.323 295.75 152.895 303.448L92.0205 440.175C88.5931 447.873 81.3188 453.159 72.938 454.04L-75.9091 469.684C-84.2895 470.564 -92.5035 466.907 -97.4565 460.089L-185.429 339.006C-190.382 332.19 -191.322 323.247 -187.894 315.549L-127.019 178.822C-123.592 171.124 -116.318 165.838 -107.937 164.957L40.9102 149.313Z" stroke="url(#paint10_linear_3432_1784)" stroke-width="5"/>
<path opacity="0.55" d="M30.8844 160.882C38.5336 159.808 46.1755 162.895 50.9311 168.983L135.397 277.094C140.153 283.18 141.3 291.342 138.406 298.504L87.012 425.709C84.1185 432.871 77.6234 437.945 69.9739 439.021L-65.8857 458.114C-73.5348 459.189 -81.1768 456.101 -85.9323 450.014L-170.398 341.903C-175.154 335.817 -176.301 327.654 -173.407 320.492L-122.013 193.288C-119.12 186.126 -112.625 181.051 -104.975 179.976L30.8844 160.882Z" stroke="url(#paint11_linear_3432_1784)" stroke-width="5"/>
<path opacity="0.59" d="M21.7438 172.94C28.6593 171.721 35.7002 174.284 40.214 179.664L120.384 275.207C124.898 280.585 126.199 287.965 123.797 294.563L81.1399 411.764C78.7382 418.363 72.9983 423.179 66.0825 424.399L-56.7452 446.057C-63.6606 447.276 -70.7016 444.713 -75.2153 439.333L-155.385 343.79C-159.9 338.411 -161.201 331.032 -158.799 324.433L-116.141 207.233C-113.74 200.634 -108 195.818 -101.084 194.598L21.7438 172.94Z" stroke="url(#paint12_linear_3432_1784)" stroke-width="5"/>
<path opacity="0.64" d="M13.5087 185.439C19.6906 184.125 26.104 186.209 30.3329 190.906L105.443 274.324C109.672 279.021 111.074 285.617 109.121 291.628L74.434 398.384C72.4811 404.394 67.4695 408.907 61.2874 410.221L-48.5099 433.559C-54.6917 434.873 -61.1052 432.789 -65.3341 428.092L-140.444 344.674C-144.673 339.978 -146.075 333.381 -144.122 327.371L-109.435 220.614C-107.482 214.604 -102.471 210.091 -96.2886 208.777L13.5087 185.439Z" stroke="url(#paint13_linear_3432_1784)" stroke-width="5"/>
<path opacity="0.68" d="M6.19835 198.328C11.6492 196.969 17.4112 198.622 21.3137 202.663L90.6254 274.437C94.528 278.478 95.978 284.295 94.4296 289.695L66.9271 385.607C65.3787 391.007 61.0667 395.172 55.6156 396.531L-41.1986 420.669C-46.6495 422.028 -52.4115 420.376 -56.3139 416.334L-125.626 344.56C-129.528 340.519 -130.978 334.703 -129.43 329.303L-101.927 233.39C-100.379 227.99 -96.0669 223.826 -90.6158 222.466L6.19835 198.328Z" stroke="url(#paint14_linear_3432_1784)" stroke-width="5"/>
<path opacity="0.73" d="M-0.171205 211.56C4.5539 210.206 9.64306 211.475 13.179 214.89L75.9816 275.537C79.5177 278.952 80.9633 283.994 79.7742 288.763L58.653 373.475C57.4639 378.245 53.8203 382.018 49.0951 383.373L-34.8286 407.438C-39.5537 408.792 -44.6429 407.523 -48.1789 404.108L-110.981 343.461C-114.518 340.047 -115.963 335.005 -114.774 330.235L-93.6529 245.523C-92.4637 240.753 -88.8202 236.98 -84.0949 235.625L-0.171205 211.56Z" stroke="url(#paint15_linear_3432_1784)" stroke-width="5"/>
<path opacity="0.77" d="M-5.58501 225.085C-1.5779 223.784 2.81953 224.718 5.95065 227.538L61.5628 277.611C64.6941 280.43 66.0833 284.706 65.2073 288.827L49.6485 362.025C48.7726 366.147 45.7643 369.488 41.7571 370.79L-29.4138 393.915C-33.4209 395.216 -37.8184 394.282 -40.9495 391.462L-96.5617 341.389C-99.6929 338.57 -101.082 334.294 -100.206 330.173L-84.6474 256.975C-83.7714 252.853 -80.7632 249.512 -76.7559 248.21L-5.58501 225.085Z" stroke="url(#paint16_linear_3432_1784)" stroke-width="5"/>
<path opacity="0.82" d="M-10.0334 238.85C-6.73402 237.649 -3.04455 238.3 -0.354865 240.557L47.4167 280.642C50.1064 282.899 51.3877 286.419 50.7781 289.877L39.9491 351.291C39.3395 354.748 36.9313 357.619 33.6318 358.82L-24.9686 380.148C-28.268 381.349 -31.9574 380.698 -34.6471 378.441L-82.4186 338.356C-85.1084 336.1 -86.3897 332.579 -85.78 329.121L-74.9511 267.708C-74.3414 264.25 -71.9333 261.38 -68.6338 260.179L-10.0334 238.85Z" stroke="url(#paint17_linear_3432_1784)" stroke-width="5"/>
<path opacity="0.86" d="M-13.5022 252.806C-10.8978 251.754 -7.92983 252.171 -5.71638 253.901L33.5967 284.615C35.8102 286.345 36.9329 289.124 36.542 291.905L29.5988 341.308C29.2079 344.09 27.3627 346.452 24.7583 347.504L-21.498 366.193C-24.1024 367.245 -27.0704 366.828 -29.2838 365.098L-68.5969 334.384C-70.8104 332.655 -71.9331 329.876 -71.5422 327.094L-64.599 277.691C-64.2081 274.909 -62.3629 272.547 -59.7585 271.495L-13.5022 252.806Z" stroke="url(#paint18_linear_3432_1784)" stroke-width="5"/>
<path opacity="0.91" d="M-15.9865 266.901C-14.0619 266.044 -11.8264 266.279 -10.122 267.517L20.1487 289.51C21.8531 290.749 22.7674 292.802 22.5472 294.897L18.6361 332.109C18.4159 334.204 17.0946 336.023 15.17 336.88L-19.0119 352.098C-20.9364 352.955 -23.172 352.72 -24.8763 351.482L-55.1471 329.489C-56.8515 328.251 -57.7657 326.197 -57.5455 324.102L-53.6344 286.89C-53.4142 284.795 -52.093 282.976 -50.1684 282.119L-15.9865 266.901Z" stroke="url(#paint19_linear_3432_1784)" stroke-width="5"/>
<path opacity="0.95" d="M-17.483 281.081C-16.2207 280.466 -14.7258 280.57 -13.5614 281.356L7.11851 295.305C8.28287 296.09 8.9398 297.437 8.84183 298.838L7.10179 323.722C7.00383 325.123 6.16583 326.365 4.9035 326.981L-17.5165 337.916C-18.7788 338.531 -20.2737 338.427 -21.4381 337.641L-42.118 323.692C-43.2824 322.907 -43.9393 321.56 -43.8413 320.159L-42.1013 295.276C-42.0033 293.875 -41.1653 292.632 -39.903 292.016L-17.483 281.081Z" stroke="url(#paint20_linear_3432_1784)" stroke-width="5"/>
<defs>
<linearGradient id="paint0_linear_3432_1784" x1="20205.3" y1="19396.9" x2="-23923.8" y2="65093.9" gradientUnits="userSpaceOnUse">
<stop stop-color="#B8E986"/>
<stop offset="1" stop-color="#50E2C3"/>
</linearGradient>
<linearGradient id="paint1_linear_3432_1784" x1="19910.2" y1="17844.5" x2="-20665.1" y2="62907.9" gradientUnits="userSpaceOnUse">
<stop stop-color="#B8E986"/>
<stop offset="1" stop-color="#50E2C3"/>
</linearGradient>
<linearGradient id="paint2_linear_3432_1784" x1="19532.5" y1="16337" x2="-17589.3" y2="60577" gradientUnits="userSpaceOnUse">
<stop stop-color="#B8E986"/>
<stop offset="1" stop-color="#50E2C3"/>
</linearGradient>
<linearGradient id="paint3_linear_3432_1784" x1="19075.1" y1="14878.1" x2="-14702.4" y2="58111.3" gradientUnits="userSpaceOnUse">
<stop stop-color="#B8E986"/>
<stop offset="1" stop-color="#50E2C3"/>
</linearGradient>
<linearGradient id="paint4_linear_3432_1784" x1="18540.9" y1="13471.7" x2="-12009.9" y2="55521.3" gradientUnits="userSpaceOnUse">
<stop stop-color="#B8E986"/>
<stop offset="1" stop-color="#50E2C3"/>
</linearGradient>
<linearGradient id="paint5_linear_3432_1784" x1="17933" y1="12121.2" x2="-9516.98" y2="52817.5" gradientUnits="userSpaceOnUse">
<stop stop-color="#B8E986"/>
<stop offset="1" stop-color="#50E2C3"/>
</linearGradient>
<linearGradient id="paint6_linear_3432_1784" x1="17254.8" y1="10830" x2="-7228.03" y2="50010.7" gradientUnits="userSpaceOnUse">
<stop stop-color="#B8E986"/>
<stop offset="1" stop-color="#50E2C3"/>
</linearGradient>
<linearGradient id="paint7_linear_3432_1784" x1="16509.6" y1="9601.35" x2="-5147.12" y2="47111.9" gradientUnits="userSpaceOnUse">
<stop stop-color="#B8E986"/>
<stop offset="1" stop-color="#50E2C3"/>
</linearGradient>
<linearGradient id="paint8_linear_3432_1784" x1="15701.1" y1="8438.28" x2="-3277.74" y2="44132.2" gradientUnits="userSpaceOnUse">
<stop stop-color="#B8E986"/>
<stop offset="1" stop-color="#50E2C3"/>
</linearGradient>
<linearGradient id="paint9_linear_3432_1784" x1="14832.8" y1="7343.67" x2="-1622.87" y2="41082.9" gradientUnits="userSpaceOnUse">
<stop stop-color="#B8E986"/>
<stop offset="1" stop-color="#50E2C3"/>
</linearGradient>
<linearGradient id="paint10_linear_3432_1784" x1="13908.8" y1="6320.22" x2="-184.969" y2="37975.2" gradientUnits="userSpaceOnUse">
<stop stop-color="#B8E986"/>
<stop offset="1" stop-color="#50E2C3"/>
</linearGradient>
<linearGradient id="paint11_linear_3432_1784" x1="12932.7" y1="5370.45" x2="1034.05" y2="34820.8" gradientUnits="userSpaceOnUse">
<stop stop-color="#B8E986"/>
<stop offset="1" stop-color="#50E2C3"/>
</linearGradient>
<linearGradient id="paint12_linear_3432_1784" x1="11908.8" y1="4496.69" x2="2032.81" y2="31630.9" gradientUnits="userSpaceOnUse">
<stop stop-color="#B8E986"/>
<stop offset="1" stop-color="#50E2C3"/>
</linearGradient>
<linearGradient id="paint13_linear_3432_1784" x1="10841.2" y1="3701.08" x2="2810.44" y2="28417.2" gradientUnits="userSpaceOnUse">
<stop stop-color="#B8E986"/>
<stop offset="1" stop-color="#50E2C3"/>
</linearGradient>
<linearGradient id="paint14_linear_3432_1784" x1="9734" y1="2985.54" x2="3366.65" y2="25191.2" gradientUnits="userSpaceOnUse">
<stop stop-color="#B8E986"/>
<stop offset="1" stop-color="#50E2C3"/>
</linearGradient>
<linearGradient id="paint15_linear_3432_1784" x1="8591.59" y1="2351.83" x2="3701.64" y2="21964.3" gradientUnits="userSpaceOnUse">
<stop stop-color="#B8E986"/>
<stop offset="1" stop-color="#50E2C3"/>
</linearGradient>
<linearGradient id="paint16_linear_3432_1784" x1="7418.32" y1="1801.47" x2="3816.17" y2="18748.2" gradientUnits="userSpaceOnUse">
<stop stop-color="#B8E986"/>
<stop offset="1" stop-color="#50E2C3"/>
</linearGradient>
<linearGradient id="paint17_linear_3432_1784" x1="6218.63" y1="1335.79" x2="3711.53" y2="15554.3" gradientUnits="userSpaceOnUse">
<stop stop-color="#B8E986"/>
<stop offset="1" stop-color="#50E2C3"/>
</linearGradient>
<linearGradient id="paint18_linear_3432_1784" x1="4997.02" y1="955.925" x2="3389.53" y2="12393.8" gradientUnits="userSpaceOnUse">
<stop stop-color="#B8E986"/>
<stop offset="1" stop-color="#50E2C3"/>
</linearGradient>
<linearGradient id="paint19_linear_3432_1784" x1="3758.02" y1="662.77" x2="2852.52" y2="9278" gradientUnits="userSpaceOnUse">
<stop stop-color="#B8E986"/>
<stop offset="1" stop-color="#50E2C3"/>
</linearGradient>
<linearGradient id="paint20_linear_3432_1784" x1="2506.2" y1="457.027" x2="2103.35" y2="6218.08" gradientUnits="userSpaceOnUse">
<stop stop-color="#B8E986"/>
<stop offset="1" stop-color="#50E2C3"/>
</linearGradient>
</defs>
</svg>
