<svg width="225" height="539" viewBox="0 0 225 539" fill="none" xmlns="http://www.w3.org/2000/svg">
<path opacity="0.05" d="M510.569 70.1609C525.558 73.8993 537.416 85.3502 541.674 100.201L617.306 363.962C621.565 378.811 617.576 394.806 606.845 405.919L416.238 603.298C405.507 614.411 389.661 618.955 374.67 615.218L108.431 548.837C93.4417 545.099 81.584 533.648 77.3261 518.797L1.69393 255.037C-2.5654 240.187 1.42315 224.192 12.1546 213.079L202.761 15.6999C213.493 4.58721 229.339 0.0428899 244.33 3.77982L510.569 70.1609Z" stroke="url(#paint0_linear_3432_1808)" stroke-width="5"/>
<path opacity="0.1" d="M493.34 74.4808C507.764 77.5479 519.457 88.0766 524.014 102.102L604.951 351.2C609.509 365.224 606.237 380.616 596.369 391.575L421.113 586.217C411.246 597.176 396.28 602.039 381.855 598.973L125.661 544.517C111.238 541.45 99.5443 530.922 94.9877 516.896L14.0507 267.798C9.49275 253.774 12.7648 238.382 22.632 227.423L197.889 32.7811C207.756 21.8225 222.721 16.9595 237.146 20.025L493.34 74.4808Z" stroke="url(#paint1_linear_3432_1808)" stroke-width="5"/>
<path opacity="0.14" d="M476.668 79.6988C490.498 82.1386 501.978 91.7712 506.781 104.969L592.096 339.371C596.901 352.568 594.298 367.326 585.271 378.085L424.931 569.17C415.903 579.929 401.821 585.055 387.989 582.617L142.334 539.301C128.503 536.861 117.024 527.228 112.22 514.03L26.9051 279.629C22.1007 266.432 24.7035 251.673 33.7309 240.915L194.071 49.8291C203.098 39.0707 217.181 33.9446 231.012 36.3829L476.668 79.6988Z" stroke="url(#paint2_linear_3432_1808)" stroke-width="5"/>
<path opacity="0.19" d="M460.592 85.7792C473.804 87.637 485.023 96.4018 490.02 108.773L578.792 328.49C583.791 340.86 581.809 354.959 573.595 365.472L427.7 552.209C419.486 562.723 406.286 568.056 393.073 566.2L158.406 533.22C145.194 531.362 133.976 522.597 128.978 510.226L40.2066 290.508C35.2077 278.138 37.1895 264.04 45.4036 253.526L191.298 66.7896C199.513 56.276 212.713 50.9424 225.926 52.7988L460.592 85.7792Z" stroke="url(#paint3_linear_3432_1808)" stroke-width="5"/>
<path opacity="0.23" d="M445.156 92.6869C457.726 94.0091 468.637 101.937 473.778 113.484L565.091 318.576C570.233 330.122 568.823 343.536 561.393 353.762L429.435 535.386C422.006 545.612 409.684 551.098 397.113 549.778L173.842 526.311C161.272 524.989 150.361 517.061 145.22 505.513L53.9072 300.422C48.7653 288.875 50.1755 275.462 57.605 265.236L189.563 83.6113C196.992 73.3856 209.314 67.8993 221.885 69.22L445.156 92.6869Z" stroke="url(#paint4_linear_3432_1808)" stroke-width="5"/>
<path opacity="0.28" d="M430.396 100.386C442.304 101.219 452.865 108.342 458.097 119.072L551.045 309.642C556.279 320.371 555.39 333.078 548.714 342.975L430.15 518.754C423.474 528.651 412.025 534.235 400.116 533.403L188.604 518.612C176.696 517.779 166.136 510.656 160.903 499.926L67.9558 309.356C62.7219 298.627 63.6109 285.92 70.2862 276.023L188.851 100.244C195.526 90.3474 206.975 84.7629 218.884 85.5952L430.396 100.386Z" stroke="url(#paint5_linear_3432_1808)" stroke-width="5"/>
<path opacity="0.32" d="M416.347 108.836C427.575 109.229 437.742 115.582 443.017 125.503L536.703 301.7C541.978 311.62 541.559 323.602 535.605 333.13L429.857 502.363C423.903 511.891 413.318 517.519 402.088 517.128L202.654 510.163C191.426 509.77 181.259 503.417 175.984 493.496L82.2983 317.299C77.0229 307.379 77.4416 295.397 83.3954 285.869L189.144 116.636C195.098 107.108 205.683 101.48 216.912 101.871L416.347 108.836Z" stroke="url(#paint6_linear_3432_1808)" stroke-width="5"/>
<path opacity="0.37" d="M403.043 117.996C413.576 117.997 423.309 123.616 428.576 132.739L522.118 294.758C527.385 303.88 527.385 315.12 522.118 324.242L428.576 486.261C423.31 495.383 413.576 501.003 403.042 501.003L215.958 501.003C205.425 501.002 195.692 495.383 190.425 486.26L96.8834 324.241C91.6162 315.119 91.6165 303.879 96.8831 294.757L190.425 132.738C195.691 123.616 205.425 117.996 215.959 117.996L403.043 117.996Z" stroke="url(#paint7_linear_3432_1808)" stroke-width="5"/>
<path opacity="0.41" d="M390.516 127.824C400.341 127.481 409.603 132.406 414.812 140.744L507.342 288.823C512.553 297.159 512.918 307.643 508.303 316.324L426.328 470.496C421.713 479.176 412.817 484.736 402.991 485.079L228.486 491.173C218.661 491.515 209.399 486.591 204.189 478.253L111.659 330.174C106.449 321.837 106.083 311.353 110.699 302.673L192.674 148.5C197.289 139.82 206.185 134.261 216.011 133.917L390.516 127.824Z" stroke="url(#paint8_linear_3432_1808)" stroke-width="5"/>
<path opacity="0.46" d="M378.794 138.279C387.901 137.642 396.655 141.912 401.76 149.481L492.427 283.901C497.533 291.468 498.212 301.186 494.21 309.39L423.133 455.12C419.131 463.325 411.056 468.772 401.949 469.409L240.204 480.72C231.098 481.356 222.343 477.086 217.238 469.517L126.571 335.098C121.466 327.53 120.787 317.812 124.788 309.608L195.865 163.878C199.867 155.673 207.943 150.226 217.05 149.589L378.794 138.279Z" stroke="url(#paint9_linear_3432_1808)" stroke-width="5"/>
<path opacity="0.5" d="M367.91 149.313C376.291 148.432 384.505 152.09 389.458 158.907L477.43 279.99C482.383 286.807 483.323 295.75 479.895 303.448L419.02 440.175C415.593 447.873 408.319 453.159 399.938 454.04L251.091 469.684C242.711 470.564 234.496 466.907 229.543 460.089L141.571 339.006C136.618 332.19 135.678 323.247 139.106 315.549L199.981 178.822C203.408 171.124 210.682 165.838 219.063 164.957L367.91 149.313Z" stroke="url(#paint10_linear_3432_1808)" stroke-width="5"/>
<path opacity="0.55" d="M357.884 160.882C365.534 159.808 373.176 162.895 377.931 168.983L462.397 277.094C467.153 283.18 468.3 291.342 465.406 298.504L414.012 425.709C411.118 432.871 404.623 437.945 396.974 439.021L261.114 458.114C253.465 459.189 245.823 456.101 241.068 450.014L156.602 341.903C151.846 335.817 150.699 327.654 153.593 320.492L204.987 193.288C207.88 186.126 214.375 181.051 222.025 179.976L357.884 160.882Z" stroke="url(#paint11_linear_3432_1808)" stroke-width="5"/>
<path opacity="0.59" d="M348.744 172.94C355.659 171.721 362.7 174.284 367.214 179.664L447.384 275.207C451.898 280.585 453.199 287.965 450.797 294.563L408.14 411.764C405.738 418.363 399.998 423.179 393.083 424.399L270.255 446.057C263.339 447.276 256.298 444.713 251.785 439.333L171.615 343.79C167.1 338.411 165.799 331.032 168.201 324.433L210.859 207.233C213.26 200.634 219 195.818 225.916 194.598L348.744 172.94Z" stroke="url(#paint12_linear_3432_1808)" stroke-width="5"/>
<path opacity="0.64" d="M340.509 185.439C346.691 184.125 353.104 186.209 357.333 190.906L432.443 274.324C436.672 279.021 438.074 285.617 436.121 291.628L401.434 398.384C399.481 404.394 394.47 408.907 388.287 410.221L278.49 433.559C272.308 434.873 265.895 432.789 261.666 428.092L186.556 344.674C182.327 339.978 180.925 333.381 182.878 327.371L217.565 220.614C219.518 214.604 224.529 210.091 230.711 208.777L340.509 185.439Z" stroke="url(#paint13_linear_3432_1808)" stroke-width="5"/>
<path opacity="0.68" d="M333.198 198.328C338.649 196.969 344.411 198.622 348.314 202.663L417.625 274.437C421.528 278.478 422.978 284.295 421.43 289.695L393.927 385.607C392.379 391.007 388.067 395.172 382.616 396.531L285.801 420.669C280.351 422.028 274.589 420.376 270.686 416.334L201.374 344.56C197.472 340.519 196.022 334.703 197.57 329.303L225.073 233.39C226.621 227.99 230.933 223.826 236.384 222.466L333.198 198.328Z" stroke="url(#paint14_linear_3432_1808)" stroke-width="5"/>
<path opacity="0.73" d="M326.829 211.56C331.554 210.206 336.643 211.475 340.179 214.89L402.982 275.537C406.518 278.952 407.963 283.994 406.774 288.763L385.653 373.475C384.464 378.245 380.82 382.018 376.095 383.373L292.171 407.438C287.446 408.792 282.357 407.523 278.821 404.108L216.019 343.461C212.482 340.047 211.037 335.005 212.226 330.235L233.347 245.523C234.536 240.753 238.18 236.98 242.905 235.625L326.829 211.56Z" stroke="url(#paint15_linear_3432_1808)" stroke-width="5"/>
<path opacity="0.77" d="M321.415 225.085C325.422 223.784 329.82 224.718 332.951 227.538L388.563 277.611C391.694 280.43 393.083 284.706 392.207 288.827L376.649 362.025C375.773 366.147 372.764 369.488 368.757 370.79L297.586 393.915C293.579 395.216 289.182 394.282 286.051 391.462L230.438 341.389C227.307 338.57 225.918 334.294 226.794 330.173L242.353 256.975C243.229 252.853 246.237 249.512 250.244 248.21L321.415 225.085Z" stroke="url(#paint16_linear_3432_1808)" stroke-width="5"/>
<defs>
<linearGradient id="paint0_linear_3432_1808" x1="20532.3" y1="19396.9" x2="-23596.8" y2="65093.9" gradientUnits="userSpaceOnUse">
<stop stop-color="#B8E986"/>
<stop offset="1" stop-color="#50E2C3"/>
</linearGradient>
<linearGradient id="paint1_linear_3432_1808" x1="20237.2" y1="17844.5" x2="-20338.1" y2="62907.9" gradientUnits="userSpaceOnUse">
<stop stop-color="#B8E986"/>
<stop offset="1" stop-color="#50E2C3"/>
</linearGradient>
<linearGradient id="paint2_linear_3432_1808" x1="19859.5" y1="16337" x2="-17262.3" y2="60577" gradientUnits="userSpaceOnUse">
<stop stop-color="#B8E986"/>
<stop offset="1" stop-color="#50E2C3"/>
</linearGradient>
<linearGradient id="paint3_linear_3432_1808" x1="19402.1" y1="14878.1" x2="-14375.4" y2="58111.3" gradientUnits="userSpaceOnUse">
<stop stop-color="#B8E986"/>
<stop offset="1" stop-color="#50E2C3"/>
</linearGradient>
<linearGradient id="paint4_linear_3432_1808" x1="18867.9" y1="13471.7" x2="-11682.9" y2="55521.3" gradientUnits="userSpaceOnUse">
<stop stop-color="#B8E986"/>
<stop offset="1" stop-color="#50E2C3"/>
</linearGradient>
<linearGradient id="paint5_linear_3432_1808" x1="18260" y1="12121.2" x2="-9189.98" y2="52817.5" gradientUnits="userSpaceOnUse">
<stop stop-color="#B8E986"/>
<stop offset="1" stop-color="#50E2C3"/>
</linearGradient>
<linearGradient id="paint6_linear_3432_1808" x1="17581.8" y1="10830" x2="-6901.03" y2="50010.7" gradientUnits="userSpaceOnUse">
<stop stop-color="#B8E986"/>
<stop offset="1" stop-color="#50E2C3"/>
</linearGradient>
<linearGradient id="paint7_linear_3432_1808" x1="16836.6" y1="9601.35" x2="-4820.12" y2="47111.9" gradientUnits="userSpaceOnUse">
<stop stop-color="#B8E986"/>
<stop offset="1" stop-color="#50E2C3"/>
</linearGradient>
<linearGradient id="paint8_linear_3432_1808" x1="16028.1" y1="8438.28" x2="-2950.74" y2="44132.2" gradientUnits="userSpaceOnUse">
<stop stop-color="#B8E986"/>
<stop offset="1" stop-color="#50E2C3"/>
</linearGradient>
<linearGradient id="paint9_linear_3432_1808" x1="15159.8" y1="7343.67" x2="-1295.87" y2="41082.9" gradientUnits="userSpaceOnUse">
<stop stop-color="#B8E986"/>
<stop offset="1" stop-color="#50E2C3"/>
</linearGradient>
<linearGradient id="paint10_linear_3432_1808" x1="14235.8" y1="6320.22" x2="142.031" y2="37975.2" gradientUnits="userSpaceOnUse">
<stop stop-color="#B8E986"/>
<stop offset="1" stop-color="#50E2C3"/>
</linearGradient>
<linearGradient id="paint11_linear_3432_1808" x1="13259.7" y1="5370.45" x2="1361.05" y2="34820.8" gradientUnits="userSpaceOnUse">
<stop stop-color="#B8E986"/>
<stop offset="1" stop-color="#50E2C3"/>
</linearGradient>
<linearGradient id="paint12_linear_3432_1808" x1="12235.8" y1="4496.69" x2="2359.81" y2="31630.9" gradientUnits="userSpaceOnUse">
<stop stop-color="#B8E986"/>
<stop offset="1" stop-color="#50E2C3"/>
</linearGradient>
<linearGradient id="paint13_linear_3432_1808" x1="11168.2" y1="3701.08" x2="3137.44" y2="28417.2" gradientUnits="userSpaceOnUse">
<stop stop-color="#B8E986"/>
<stop offset="1" stop-color="#50E2C3"/>
</linearGradient>
<linearGradient id="paint14_linear_3432_1808" x1="10061" y1="2985.54" x2="3693.65" y2="25191.2" gradientUnits="userSpaceOnUse">
<stop stop-color="#B8E986"/>
<stop offset="1" stop-color="#50E2C3"/>
</linearGradient>
<linearGradient id="paint15_linear_3432_1808" x1="8918.59" y1="2351.83" x2="4028.64" y2="21964.3" gradientUnits="userSpaceOnUse">
<stop stop-color="#B8E986"/>
<stop offset="1" stop-color="#50E2C3"/>
</linearGradient>
<linearGradient id="paint16_linear_3432_1808" x1="7745.32" y1="1801.47" x2="4143.17" y2="18748.2" gradientUnits="userSpaceOnUse">
<stop stop-color="#B8E986"/>
<stop offset="1" stop-color="#50E2C3"/>
</linearGradient>
</defs>
</svg>
