<svg width="40" height="40" viewBox="0 0 40 40" fill="none" xmlns="http://www.w3.org/2000/svg">
<circle cx="20" cy="20" r="20" fill="#CFFEBF"/>
<rect width="20" height="20" transform="translate(10 10)" fill="#CFFEBF"/>
<path fill-rule="evenodd" clip-rule="evenodd" d="M12.7083 27.4998C12.7083 23.933 15.5997 21.0415 19.1666 21.0415H20.8333C24.4001 21.0415 27.2916 23.933 27.2916 27.4998C27.2916 27.845 27.0118 28.1248 26.6666 28.1248H13.3333C12.9881 28.1248 12.7083 27.845 12.7083 27.4998Z" fill="#30C070"/>
<path fill-rule="evenodd" clip-rule="evenodd" d="M16.0417 15.8333C16.0417 13.6472 17.814 11.875 20.0001 11.875C22.1862 11.875 23.9584 13.6472 23.9584 15.8333C23.9584 18.0195 22.1862 19.7917 20.0001 19.7917C17.814 19.7917 16.0417 18.0195 16.0417 15.8333Z" fill="#30C070"/>
</svg>
