<svg width="401" height="276" viewBox="0 0 401 276" fill="none" xmlns="http://www.w3.org/2000/svg">
<path d="M59.4698 260.785C75.8484 260.785 90.6547 263.252 101.348 267.224C106.696 269.21 110.99 271.563 113.937 274.151C116.885 276.74 118.44 279.52 118.44 282.374C118.44 285.228 116.885 288.008 113.937 290.597C110.99 293.185 106.696 295.538 101.348 297.524C90.6547 301.496 75.8484 303.963 59.4698 303.963C43.0915 303.963 28.286 301.496 17.5929 297.524C12.2444 295.538 7.95024 293.185 5.00305 290.597C2.05501 288.008 0.500151 285.228 0.500122 282.374C0.500122 279.52 2.05503 276.74 5.00305 274.151C7.95024 271.563 12.2444 269.21 17.5929 267.224C28.286 263.252 43.0915 260.785 59.4698 260.785Z" fill="#2E9B5F" stroke="#28AA62"/>
<rect x="0.00012207" y="260.285" width="118.94" height="22.0888" fill="#2E9B5F"/>
<path d="M59.4697 233.598C75.8389 233.598 90.6349 236.537 101.319 241.269C106.662 243.635 110.954 246.44 113.904 249.528C116.852 252.615 118.439 255.962 118.439 259.435C118.439 262.907 116.852 266.255 113.904 269.341C110.954 272.429 106.662 275.234 101.319 277.6C90.6349 282.331 75.8389 285.271 59.4697 285.271C43.1007 285.27 28.3055 282.331 17.6211 277.6C12.2784 275.234 7.98532 272.43 5.03516 269.341C2.08749 266.255 0.500085 262.907 0.5 259.435C0.5 255.962 2.08741 252.615 5.03516 249.528C7.98532 246.439 12.2782 243.635 17.6211 241.269C28.3055 236.537 43.1008 233.598 59.4697 233.598Z" fill="#72F481" stroke="#87FF95"/>
<g filter="url(#filter0_i_3414_672)">
<ellipse cx="58.6171" cy="259.44" rx="50.1246" ry="19.5401" fill="#30C070"/>
</g>
<path d="M52.4592 272.075L37.4482 266.674L37.2671 266.569L40.259 264.842L50.433 268.824L50.502 268.784L43.9492 262.711L47.0187 260.939L57.5634 264.708L57.641 264.663L50.7261 258.799L53.6749 257.096L53.8559 257.201L63.2109 265.867L59.6327 267.933L49.726 264.215L49.657 264.255L56.0459 270.004L52.4592 272.075Z" fill="#28AA62"/>
<path d="M72.9455 256.046C74.0146 256.663 74.532 257.363 74.4975 258.146C74.4802 258.933 73.7933 259.777 72.4368 260.68L73.9026 261.526L72.1695 262.527L70.7038 261.681C69.215 262.381 67.7148 262.726 66.2031 262.716C64.7028 262.706 63.2946 262.361 61.9783 261.681L64.789 260.058C65.8697 260.582 67.0078 260.642 68.2034 260.237L65.3581 258.594L65.177 258.659C63.6826 259.21 62.3346 259.51 61.1333 259.56C59.9147 259.633 58.7565 259.353 57.6586 258.719C56.7102 258.171 56.2791 257.508 56.3653 256.728C56.4515 255.948 57.035 255.176 58.1156 254.413L56.6326 253.557L58.3656 252.556L59.8486 253.412C61.1994 252.812 62.6105 252.501 64.082 252.481C65.5478 252.472 66.8152 252.765 67.8844 253.363L65.0736 254.985C64.2861 254.59 63.3923 254.556 62.3921 254.881L64.7977 256.27L65.0736 256.17C66.6313 255.576 68.0482 255.246 69.3242 255.18C70.6176 255.11 71.8246 255.399 72.9455 256.046ZM60.6074 255.852C60.0211 256.369 59.9866 256.777 60.5039 257.076C61.0212 257.375 61.7512 257.368 62.6939 257.056L60.6074 255.852ZM69.9709 259.256C70.7641 258.619 70.8302 258.11 70.1692 257.728C69.8358 257.536 69.4536 257.444 69.0225 257.454C68.5856 257.474 68.0654 257.592 67.4619 257.808L69.9709 259.256Z" fill="#28AA62"/>
<path d="M58.2916 243.048C72.3653 243.048 85.0845 245.167 94.2672 248.578C98.8605 250.284 102.543 252.304 105.068 254.521C107.594 256.739 108.916 259.112 108.916 261.537C108.916 263.963 107.594 266.335 105.068 268.553C102.543 270.77 98.8605 272.789 94.2672 274.495C85.0845 277.906 72.3653 280.025 58.2916 280.025C44.2178 280.025 31.4978 277.906 22.3151 274.495C17.7221 272.789 14.04 270.77 11.5153 268.553C8.98966 266.335 7.66775 263.963 7.6676 261.537C7.6676 259.112 8.98959 256.739 11.5153 254.521C14.04 252.304 17.7219 250.284 22.3151 248.578C31.4978 245.167 44.2178 243.048 58.2916 243.048Z" fill="#2E9B5F" stroke="#28AA62"/>
<rect x="7.1676" y="242.548" width="102.248" height="18.9888" fill="#2E9B5F"/>
<path d="M58.2916 219.683C72.356 219.683 85.0648 222.209 94.2389 226.271C98.8264 228.303 102.508 230.709 105.036 233.355C107.561 236 108.916 238.861 108.916 241.823C108.916 244.786 107.561 247.647 105.036 250.291C102.508 252.938 98.8264 255.343 94.2389 257.375C85.0648 261.438 72.356 263.964 58.2916 263.964C44.2273 263.964 31.5185 261.438 22.3444 257.375C17.7567 255.343 14.0743 252.938 11.5465 250.291C9.02112 247.647 7.66762 244.786 7.6676 241.823C7.6676 238.861 9.0211 236 11.5465 233.355C14.0743 230.709 17.7567 228.303 22.3444 226.271C31.5185 222.209 44.2273 219.683 58.2916 219.683Z" fill="#72F481" stroke="#87FF95"/>
<g filter="url(#filter1_i_3414_672)">
<ellipse cx="57.555" cy="241.832" rx="43.0901" ry="16.7978" fill="#30C070"/>
</g>
<path d="M33.4654 261.542C30.6132 260.971 26.1619 259.351 26.1619 259.351L21.7799 273.227C21.7799 273.227 27.0453 275.268 30.544 276.148C33.6365 276.926 42.9598 278.339 42.9598 278.339L43.6901 263.733C40.838 263.162 36.3175 262.112 33.4654 261.542Z" fill="#30C070"/>
<path d="M79.5117 262.266C76.6857 262.955 70.7487 263.729 70.7487 263.729L72.9097 278.348C72.9097 278.348 78.8557 277.571 82.3985 276.89C85.53 276.288 94.8143 273.238 94.8143 273.238L89.0061 260.075C86.1801 260.764 82.3377 261.578 79.5117 262.266Z" fill="#30C070"/>
<path d="M104.86 244.736L107.818 252.73L115.812 255.688L107.818 258.646L104.86 266.64L101.902 258.646L93.9082 255.688L101.902 252.73L104.86 244.736Z" fill="#FFE926"/>
<path d="M197.604 264.118C212.808 264.118 226.55 266.408 236.473 270.094C241.437 271.937 245.418 274.121 248.15 276.52C250.883 278.919 252.319 281.492 252.319 284.127C252.319 286.762 250.883 289.334 248.15 291.733C245.418 294.132 241.437 296.316 236.473 298.159C226.55 301.845 212.808 304.135 197.604 304.135C182.401 304.135 168.658 301.845 158.735 298.159C153.772 296.316 149.79 294.132 147.058 291.733C144.326 289.334 142.89 286.762 142.889 284.127C142.889 281.492 144.326 278.919 147.058 276.52C149.79 274.121 153.772 271.937 158.735 270.094C168.658 266.408 182.401 264.118 197.604 264.118Z" fill="#2E9B5F" stroke="#28AA62"/>
<rect x="142.389" y="263.618" width="110.43" height="20.5084" fill="#2E9B5F"/>
<path d="M197.604 238.875C212.799 238.875 226.531 241.603 236.445 245.994C241.403 248.19 245.384 250.791 248.119 253.654C250.851 256.515 252.319 259.614 252.319 262.827C252.319 266.04 250.851 269.139 248.119 272C245.384 274.863 241.403 277.465 236.445 279.66C226.531 284.051 212.799 286.779 197.604 286.779C182.41 286.779 168.679 284.051 158.765 279.66C153.807 277.465 149.825 274.863 147.09 272C144.357 269.139 142.89 266.04 142.89 262.827C142.89 259.614 144.357 256.515 147.09 253.654C149.825 250.791 153.807 248.19 158.765 245.994C168.679 241.604 182.41 238.875 197.604 238.875Z" fill="#72F481" stroke="#87FF95"/>
<g filter="url(#filter2_i_3414_672)">
<ellipse cx="196.809" cy="262.828" rx="46.5382" ry="18.142" fill="#30C070"/>
</g>
<path d="M191.093 274.559L177.156 269.544L176.988 269.447L179.766 267.843L189.212 271.541L189.276 271.504L183.192 265.865L186.042 264.22L195.832 267.719L195.905 267.677L189.484 262.232L192.222 260.652L192.39 260.749L201.076 268.795L197.754 270.713L188.556 267.261L188.492 267.298L194.424 272.636L191.093 274.559Z" fill="#28AA62"/>
<path d="M210.114 259.676C211.107 260.25 211.587 260.9 211.555 261.627C211.539 262.357 210.901 263.141 209.642 263.979L211.003 264.765L209.394 265.694L208.033 264.908C206.65 265.558 205.258 265.879 203.854 265.87C202.461 265.86 201.154 265.54 199.931 264.908L202.541 263.402C203.544 263.888 204.601 263.944 205.711 263.568L203.069 262.043L202.901 262.103C201.514 262.614 200.262 262.893 199.147 262.939C198.016 263.007 196.94 262.747 195.921 262.158C195.04 261.65 194.64 261.034 194.72 260.31C194.8 259.586 195.342 258.869 196.345 258.161L194.968 257.366L196.577 256.437L197.954 257.232C199.208 256.674 200.518 256.386 201.885 256.367C203.246 256.358 204.422 256.631 205.415 257.185L202.805 258.692C202.074 258.325 201.244 258.293 200.316 258.595L202.549 259.884L202.805 259.792C204.252 259.24 205.567 258.934 206.752 258.872C207.953 258.808 209.073 259.076 210.114 259.676ZM198.659 259.496C198.114 259.977 198.082 260.356 198.563 260.633C199.043 260.91 199.721 260.904 200.596 260.615L198.659 259.496ZM207.352 262.658C208.089 262.066 208.15 261.593 207.536 261.239C207.227 261.06 206.872 260.975 206.472 260.984C206.066 261.003 205.583 261.112 205.023 261.313L207.352 262.658Z" fill="#28AA62"/>
<path d="M188.756 241.59C203.96 241.59 217.702 243.88 227.625 247.565C232.589 249.409 236.57 251.592 239.302 253.991C242.035 256.391 243.471 258.963 243.471 261.599C243.471 264.234 242.035 266.805 239.302 269.205C236.57 271.604 232.589 273.787 227.625 275.631C217.702 279.317 203.96 281.606 188.756 281.606C173.553 281.606 159.81 279.317 149.887 275.631C144.924 273.787 140.942 271.604 138.21 269.205C135.478 266.805 134.041 264.234 134.041 261.599C134.041 258.963 135.477 256.391 138.21 253.991C140.942 251.592 144.924 249.409 149.887 247.565C159.81 243.88 173.553 241.59 188.756 241.59Z" fill="#2E9B5F" stroke="#28AA62"/>
<rect x="133.541" y="241.09" width="110.43" height="20.5084" fill="#2E9B5F"/>
<path d="M188.756 216.354C203.95 216.354 217.682 219.083 227.597 223.474C232.555 225.669 236.536 228.27 239.271 231.134C242.003 233.995 243.471 237.094 243.471 240.307C243.471 243.519 242.003 246.619 239.271 249.479C236.536 252.343 232.555 254.944 227.597 257.14C217.682 261.53 203.95 264.259 188.756 264.259C173.562 264.259 159.831 261.53 149.916 257.14C144.958 254.944 140.976 252.343 138.241 249.479C135.509 246.619 134.041 243.519 134.041 240.307C134.041 237.094 135.509 233.995 138.241 231.134C140.976 228.27 144.958 225.669 149.916 223.474C159.831 219.083 173.562 216.354 188.756 216.354Z" fill="#72F481" stroke="#87FF95"/>
<g filter="url(#filter3_i_3414_672)">
<ellipse cx="187.962" cy="240.317" rx="46.5382" ry="18.142" fill="#30C070"/>
</g>
<path d="M182.245 252.047L168.308 247.032L168.14 246.935L170.917 245.332L180.364 249.029L180.428 248.992L174.344 243.353L177.194 241.708L186.984 245.207L187.056 245.165L180.636 239.721L183.374 238.14L183.542 238.237L192.227 246.284L188.905 248.202L179.707 244.749L179.643 244.786L185.575 250.124L182.245 252.047Z" fill="#28AA62"/>
<path d="M201.265 237.165C202.258 237.738 202.738 238.388 202.706 239.115C202.69 239.845 202.053 240.63 200.793 241.468L202.154 242.253L200.545 243.182L199.184 242.397C197.802 243.047 196.409 243.367 195.005 243.358C193.612 243.349 192.305 243.028 191.083 242.397L193.692 240.89C194.696 241.377 195.752 241.432 196.863 241.056L194.221 239.531L194.053 239.591C192.665 240.103 191.414 240.382 190.298 240.428C189.167 240.496 188.092 240.235 187.072 239.647C186.192 239.138 185.791 238.522 185.871 237.798C185.951 237.074 186.493 236.357 187.496 235.649L186.12 234.854L187.729 233.925L189.106 234.72C190.36 234.162 191.67 233.874 193.036 233.856C194.397 233.846 195.574 234.119 196.566 234.674L193.957 236.18C193.226 235.814 192.396 235.781 191.467 236.083L193.7 237.373L193.957 237.28C195.403 236.729 196.718 236.422 197.903 236.361C199.104 236.296 200.225 236.564 201.265 237.165ZM189.81 236.984C189.266 237.465 189.234 237.844 189.714 238.121C190.194 238.399 190.872 238.393 191.747 238.103L189.81 236.984ZM198.504 240.146C199.24 239.554 199.301 239.081 198.688 238.727C198.378 238.548 198.023 238.463 197.623 238.473C197.217 238.491 196.734 238.601 196.174 238.801L198.504 240.146Z" fill="#28AA62"/>
<path d="M161.944 261.603C158.863 260.987 154.056 259.236 154.056 259.236L149.323 274.223C149.323 274.223 155.01 276.428 158.789 277.378C162.128 278.218 172.198 279.745 172.198 279.745L172.987 263.969C169.906 263.353 165.024 262.219 161.944 261.603Z" fill="#30C070"/>
<path d="M211.674 262.387C208.622 263.13 202.21 263.967 202.21 263.967L204.544 279.755C204.544 279.755 210.966 278.916 214.792 278.18C218.174 277.53 228.201 274.236 228.201 274.236L221.928 260.02C218.876 260.764 214.726 261.643 211.674 262.387Z" fill="#30C070"/>
<path d="M203.913 221.374C219.116 221.374 232.859 223.664 242.782 227.35C247.745 229.193 251.727 231.376 254.458 233.775C257.191 236.175 258.627 238.747 258.627 241.383C258.627 244.018 257.191 246.59 254.458 248.989C251.727 251.388 247.745 253.572 242.782 255.415C232.859 259.101 219.116 261.391 203.913 261.391C188.709 261.391 174.967 259.101 165.043 255.415C160.08 253.572 156.098 251.388 153.367 248.989C150.634 246.59 149.198 244.018 149.198 241.383C149.198 238.747 150.634 236.175 153.367 233.775C156.098 231.376 160.08 229.193 165.043 227.35C174.967 223.664 188.709 221.374 203.913 221.374Z" fill="#2E9B5F" stroke="#28AA62"/>
<rect x="148.698" y="220.874" width="110.43" height="20.5084" fill="#2E9B5F"/>
<path d="M203.912 196.148C219.107 196.148 232.839 198.877 242.753 203.268C247.711 205.463 251.692 208.064 254.427 210.928C257.16 213.789 258.627 216.888 258.627 220.101C258.627 223.313 257.159 226.413 254.427 229.273C251.692 232.137 247.711 234.738 242.753 236.934C232.839 241.324 219.107 244.053 203.912 244.053C188.718 244.053 174.987 241.324 165.073 236.934C160.115 234.738 156.133 232.137 153.398 229.273C150.666 226.413 149.198 223.313 149.198 220.101C149.198 216.888 150.665 213.789 153.398 210.928C156.133 208.064 160.115 205.463 165.073 203.268C174.987 198.877 188.719 196.148 203.912 196.148Z" fill="#72F481" stroke="#87FF95"/>
<g filter="url(#filter4_i_3414_672)">
<ellipse cx="203.118" cy="220.102" rx="46.5382" ry="18.142" fill="#30C070"/>
</g>
<path d="M197.401 231.832L183.464 226.818L183.296 226.721L186.074 225.117L195.52 228.814L195.584 228.777L189.5 223.139L192.35 221.493L202.14 224.992L202.213 224.95L195.792 219.506L198.53 217.925L198.698 218.022L207.384 226.069L204.062 227.987L194.864 224.534L194.8 224.571L200.732 229.91L197.401 231.832Z" fill="#28AA62"/>
<path d="M216.422 216.95C217.415 217.523 217.895 218.173 217.863 218.9C217.847 219.631 217.209 220.415 215.95 221.253L217.311 222.038L215.702 222.967L214.341 222.182C212.958 222.832 211.566 223.152 210.162 223.143C208.769 223.134 207.462 222.813 206.239 222.182L208.849 220.675C209.852 221.162 210.909 221.217 212.019 220.841L209.377 219.316L209.209 219.376C207.822 219.888 206.57 220.167 205.455 220.213C204.324 220.281 203.248 220.02 202.229 219.432C201.348 218.923 200.948 218.307 201.028 217.583C201.108 216.859 201.65 216.143 202.653 215.434L201.276 214.639L202.885 213.71L204.262 214.505C205.516 213.947 206.826 213.659 208.193 213.641C209.554 213.631 210.73 213.904 211.723 214.459L209.113 215.965C208.382 215.599 207.552 215.566 206.624 215.868L208.857 217.158L209.113 217.065C210.56 216.514 211.875 216.207 213.06 216.146C214.261 216.081 215.381 216.349 216.422 216.95ZM204.967 216.77C204.422 217.25 204.39 217.629 204.871 217.907C205.351 218.184 206.029 218.178 206.904 217.888L204.967 216.77ZM213.66 219.931C214.397 219.339 214.458 218.866 213.844 218.512C213.535 218.333 213.18 218.249 212.78 218.258C212.374 218.276 211.891 218.386 211.331 218.586L213.66 219.931Z" fill="#28AA62"/>
<path d="M177.1 241.398C174.02 240.782 169.212 239.031 169.212 239.031L164.48 254.018C164.48 254.018 170.166 256.223 173.945 257.173C177.285 258.013 187.354 259.54 187.354 259.54L188.143 243.764C185.063 243.148 180.181 242.014 177.1 241.398Z" fill="#30C070"/>
<path d="M226.832 242.171C223.78 242.914 217.367 243.751 217.367 243.751L219.701 259.539C219.701 259.539 226.123 258.7 229.95 257.965C233.332 257.314 243.359 254.021 243.359 254.021L237.086 239.804C234.034 240.548 229.884 241.427 226.832 242.171Z" fill="#30C070"/>
<path d="M197.604 188.543C212.808 188.543 226.55 190.833 236.473 194.519C241.437 196.362 245.418 198.545 248.15 200.944C250.883 203.344 252.319 205.916 252.319 208.552C252.319 211.187 250.883 213.759 248.15 216.158C245.418 218.557 241.437 220.74 236.473 222.584C226.55 226.27 212.808 228.56 197.604 228.56C182.401 228.56 168.658 226.27 158.735 222.584C153.772 220.74 149.79 218.557 147.058 216.158C144.326 213.759 142.89 211.187 142.889 208.552C142.889 205.916 144.326 203.344 147.058 200.944C149.79 198.545 153.772 196.362 158.735 194.519C168.658 190.833 182.401 188.543 197.604 188.543Z" fill="#2E9B5F" stroke="#28AA62"/>
<rect x="142.389" y="188.043" width="110.43" height="20.5084" fill="#2E9B5F"/>
<path d="M197.604 163.308C212.799 163.308 226.531 166.036 236.445 170.427C241.403 172.622 245.384 175.224 248.119 178.087C250.851 180.948 252.319 184.047 252.319 187.26C252.319 190.473 250.851 193.572 248.119 196.433C245.384 199.296 241.403 201.897 236.445 204.093C226.531 208.483 212.799 211.212 197.604 211.212C182.41 211.212 168.679 208.483 158.765 204.093C153.807 201.897 149.825 199.296 147.09 196.433C144.357 193.572 142.89 190.473 142.89 187.26C142.89 184.047 144.357 180.948 147.09 178.087C149.825 175.223 153.807 172.622 158.765 170.427C168.679 166.036 182.41 163.308 197.604 163.308Z" fill="#72F481" stroke="#87FF95"/>
<g filter="url(#filter5_i_3414_672)">
<ellipse cx="196.809" cy="187.269" rx="46.5382" ry="18.142" fill="#30C070"/>
</g>
<path d="M170.782 208.557C167.701 207.941 162.894 206.19 162.894 206.19L158.161 221.177C158.161 221.177 163.848 223.382 167.627 224.332C170.966 225.173 181.036 226.699 181.036 226.699L181.825 210.923C178.744 210.307 173.862 209.173 170.782 208.557Z" fill="#30C070"/>
<path d="M220.514 209.33C217.462 210.073 211.05 210.91 211.05 210.91L213.384 226.698C213.384 226.698 219.806 225.859 223.632 225.124C227.014 224.474 237.041 221.18 237.041 221.18L230.768 206.964C227.716 207.707 223.566 208.586 220.514 209.33Z" fill="#30C070"/>
<path d="M334.557 263.718C349.902 263.718 363.772 266.029 373.787 269.749C378.796 271.61 382.815 273.813 385.573 276.234C388.332 278.657 389.782 281.255 389.782 283.916C389.782 286.577 388.332 289.174 385.573 291.597C382.815 294.018 378.796 296.221 373.787 298.082C363.772 301.802 349.902 304.113 334.557 304.113C319.213 304.113 305.343 301.802 295.328 298.082C290.319 296.221 286.299 294.018 283.542 291.597C280.783 289.174 279.333 286.577 279.333 283.916C279.333 281.255 280.783 278.657 283.542 276.234C286.299 273.813 290.319 271.61 295.328 269.749C305.343 266.029 319.213 263.718 334.557 263.718Z" fill="#2E9B5F" stroke="#28AA62"/>
<rect x="278.833" y="263.218" width="111.45" height="20.6978" fill="#2E9B5F"/>
<path d="M334.557 238.241C349.892 238.241 363.752 240.995 373.759 245.427C378.763 247.643 382.781 250.269 385.542 253.159C388.3 256.047 389.782 259.175 389.782 262.419C389.782 265.663 388.3 268.792 385.542 271.68C382.781 274.57 378.763 277.196 373.759 279.412C363.752 283.844 349.892 286.598 334.557 286.598C319.223 286.598 305.363 283.844 295.356 279.412C290.352 277.196 286.334 274.57 283.573 271.68C280.815 268.792 279.333 265.663 279.333 262.419C279.333 259.175 280.815 256.047 283.573 253.159C286.334 250.269 290.353 247.643 295.356 245.427C305.363 240.995 319.223 238.241 334.557 238.241Z" fill="#72F481" stroke="#87FF95"/>
<g filter="url(#filter6_i_3414_672)">
<ellipse cx="333.755" cy="262.429" rx="46.968" ry="18.3096" fill="#30C070"/>
</g>
<path d="M327.987 274.268L313.921 269.207L313.752 269.109L316.555 267.491L326.089 271.222L326.153 271.185L320.013 265.494L322.889 263.834L332.77 267.365L332.843 267.323L326.363 261.828L329.126 260.233L329.296 260.331L338.062 268.452L334.709 270.387L325.426 266.903L325.361 266.94L331.348 272.328L327.987 274.268Z" fill="#28AA62"/>
<path d="M347.183 259.248C348.185 259.827 348.67 260.483 348.638 261.217C348.621 261.954 347.978 262.745 346.707 263.591L348.08 264.384L346.456 265.322L345.083 264.529C343.688 265.185 342.282 265.508 340.866 265.499C339.46 265.489 338.14 265.166 336.907 264.529L339.541 263.008C340.553 263.499 341.62 263.555 342.74 263.176L340.074 261.637L339.904 261.697C338.504 262.213 337.241 262.495 336.115 262.541C334.973 262.61 333.888 262.347 332.859 261.753C331.97 261.24 331.567 260.618 331.647 259.887C331.728 259.157 332.275 258.434 333.287 257.718L331.898 256.916L333.522 255.979L334.911 256.781C336.177 256.218 337.499 255.927 338.878 255.909C340.252 255.899 341.439 256.174 342.441 256.734L339.807 258.255C339.069 257.885 338.232 257.852 337.295 258.157L339.549 259.458L339.807 259.365C341.267 258.808 342.594 258.499 343.79 258.437C345.002 258.371 346.133 258.642 347.183 259.248ZM335.622 259.066C335.073 259.552 335.041 259.934 335.525 260.214C336.01 260.494 336.694 260.488 337.577 260.195L335.622 259.066ZM344.396 262.257C345.139 261.66 345.201 261.183 344.582 260.825C344.27 260.645 343.911 260.559 343.507 260.568C343.098 260.587 342.611 260.697 342.045 260.9L344.396 262.257Z" fill="#28AA62"/>
<path d="M339.652 242.047C354.997 242.047 368.867 244.358 378.882 248.078C383.891 249.939 387.91 252.142 390.668 254.563C393.427 256.986 394.877 259.584 394.877 262.245C394.877 264.906 393.426 267.503 390.668 269.926C387.91 272.347 383.891 274.551 378.882 276.411C368.867 280.131 354.997 282.442 339.652 282.442C324.308 282.442 310.438 280.131 300.423 276.411C295.414 274.55 291.394 272.347 288.637 269.926C285.878 267.503 284.428 264.906 284.428 262.245C284.428 259.584 285.878 256.986 288.637 254.563C291.394 252.142 295.414 249.939 300.423 248.078C310.438 244.358 324.308 242.047 339.652 242.047Z" fill="#2E9B5F" stroke="#28AA62"/>
<rect x="283.928" y="241.547" width="111.45" height="20.6978" fill="#2E9B5F"/>
<path d="M339.652 216.57C354.987 216.57 368.847 219.324 378.854 223.756C383.858 225.972 387.876 228.598 390.637 231.488C393.395 234.376 394.877 237.504 394.877 240.748C394.877 243.992 393.395 247.121 390.637 250.009C387.876 252.899 383.858 255.525 378.854 257.741C368.847 262.173 354.987 264.927 339.652 264.927C324.318 264.927 310.458 262.173 300.451 257.741C295.447 255.525 291.429 252.899 288.668 250.009C285.91 247.121 284.428 243.992 284.428 240.748C284.428 237.504 285.91 234.376 288.668 231.488C291.429 228.598 295.447 225.972 300.451 223.756C310.458 219.324 324.318 216.57 339.652 216.57Z" fill="#72F481" stroke="#87FF95"/>
<g filter="url(#filter7_i_3414_672)">
<ellipse cx="338.85" cy="240.758" rx="46.968" ry="18.3096" fill="#30C070"/>
</g>
<path d="M333.082 252.597L319.016 247.536L318.846 247.438L321.65 245.82L331.183 249.551L331.248 249.514L325.108 243.823L327.984 242.163L337.864 245.694L337.937 245.652L331.458 240.157L334.221 238.562L334.39 238.66L343.156 246.781L339.803 248.716L330.521 245.232L330.456 245.269L336.443 250.657L333.082 252.597Z" fill="#28AA62"/>
<path d="M352.278 237.577C353.28 238.156 353.764 238.812 353.732 239.546C353.716 240.283 353.072 241.074 351.801 241.92L353.175 242.713L351.551 243.651L350.177 242.858C348.782 243.514 347.377 243.837 345.96 243.828C344.554 243.819 343.235 243.495 342.001 242.858L344.635 241.337C345.648 241.828 346.714 241.884 347.834 241.505L345.168 239.966L344.999 240.026C343.598 240.543 342.335 240.824 341.21 240.871C340.068 240.939 338.982 240.676 337.954 240.082C337.065 239.569 336.661 238.947 336.742 238.217C336.823 237.486 337.369 236.763 338.382 236.048L336.992 235.245L338.616 234.308L340.006 235.11C341.271 234.547 342.594 234.256 343.973 234.238C345.346 234.228 346.534 234.504 347.535 235.063L344.902 236.584C344.164 236.214 343.326 236.181 342.389 236.486L344.643 237.787L344.902 237.694C346.361 237.137 347.689 236.828 348.885 236.766C350.097 236.701 351.228 236.971 352.278 237.577ZM340.717 237.396C340.167 237.881 340.135 238.263 340.62 238.543C341.105 238.823 341.789 238.817 342.672 238.524L340.717 237.396ZM349.491 240.586C350.234 239.989 350.296 239.512 349.676 239.154C349.364 238.974 349.006 238.888 348.602 238.898C348.193 238.916 347.705 239.027 347.14 239.229L349.491 240.586Z" fill="#28AA62"/>
<path d="M312.593 262.25C309.484 261.628 304.632 259.861 304.632 259.861L299.856 274.987C299.856 274.987 305.595 277.212 309.408 278.171C312.779 279.019 322.942 280.559 322.942 280.559L323.738 264.638C320.629 264.016 315.702 262.871 312.593 262.25Z" fill="#30C070"/>
<path d="M362.783 263.031C359.703 263.781 353.231 264.626 353.231 264.626L355.587 280.56C355.587 280.56 362.068 279.713 365.93 278.971C369.343 278.314 379.463 274.99 379.463 274.99L373.132 260.643C370.052 261.393 365.863 262.281 362.783 263.031Z" fill="#30C070"/>
<path d="M344.748 220.365C360.092 220.365 373.962 222.676 383.977 226.396C388.987 228.257 393.006 230.46 395.763 232.882C398.522 235.304 399.972 237.902 399.972 240.563C399.972 243.225 398.522 245.822 395.763 248.244C393.006 250.666 388.987 252.869 383.977 254.729C373.962 258.449 360.092 260.761 344.748 260.761C329.403 260.761 315.534 258.449 305.518 254.729C300.509 252.869 296.49 250.666 293.732 248.244C290.974 245.822 289.523 243.225 289.523 240.563C289.523 237.902 290.973 235.304 293.732 232.882C296.49 230.46 300.509 228.257 305.518 226.396C315.534 222.676 329.403 220.365 344.748 220.365Z" fill="#2E9B5F" stroke="#28AA62"/>
<rect x="289.023" y="219.865" width="111.45" height="20.6978" fill="#2E9B5F"/>
<path d="M344.748 194.897C360.083 194.897 373.942 197.651 383.949 202.083C388.953 204.299 392.972 206.925 395.732 209.815C398.49 212.703 399.972 215.831 399.972 219.075C399.972 222.319 398.49 225.448 395.732 228.336C392.972 231.226 388.953 233.852 383.949 236.068C373.942 240.5 360.083 243.254 344.748 243.254C329.413 243.254 315.553 240.5 305.547 236.068C300.543 233.852 296.524 231.226 293.763 228.336C291.005 225.448 289.523 222.319 289.523 219.075C289.523 215.831 291.006 212.703 293.763 209.815C296.524 206.925 300.543 204.299 305.547 202.083C315.553 197.651 329.413 194.897 344.748 194.897Z" fill="#72F481" stroke="#87FF95"/>
<g filter="url(#filter8_i_3414_672)">
<ellipse cx="343.955" cy="219.077" rx="46.968" ry="18.3096" fill="#30C070"/>
</g>
<path d="M338.185 230.916L324.12 225.855L323.95 225.757L326.753 224.138L336.287 227.87L336.351 227.832L330.211 222.142L333.087 220.481L342.968 224.012L343.041 223.97L336.561 218.475L339.324 216.88L339.494 216.978L348.26 225.099L344.907 227.035L335.624 223.55L335.56 223.588L341.546 228.975L338.185 230.916Z" fill="#28AA62"/>
<path d="M357.382 215.896C358.383 216.474 358.868 217.13 358.836 217.864C358.82 218.601 358.176 219.393 356.905 220.238L358.278 221.031L356.654 221.969L355.281 221.176C353.886 221.832 352.48 222.156 351.064 222.146C349.658 222.137 348.338 221.813 347.105 221.176L349.739 219.655C350.751 220.147 351.818 220.203 352.938 219.823L350.272 218.284L350.102 218.345C348.702 218.861 347.439 219.142 346.313 219.189C345.171 219.257 344.086 218.995 343.057 218.401C342.169 217.888 341.765 217.266 341.845 216.535C341.926 215.804 342.473 215.081 343.485 214.366L342.096 213.564L343.72 212.626L345.109 213.428C346.375 212.865 347.697 212.575 349.076 212.556C350.45 212.547 351.637 212.822 352.639 213.382L350.005 214.902C349.267 214.532 348.43 214.5 347.493 214.804L349.747 216.106L350.005 216.012C351.465 215.456 352.793 215.146 353.988 215.084C355.2 215.019 356.331 215.289 357.382 215.896ZM345.82 215.714C345.271 216.199 345.239 216.582 345.723 216.861C346.208 217.141 346.892 217.135 347.775 216.843L345.82 215.714ZM354.594 218.904C355.338 218.307 355.399 217.83 354.78 217.472C354.468 217.292 354.109 217.207 353.706 217.216C353.296 217.235 352.809 217.345 352.243 217.547L354.594 218.904Z" fill="#28AA62"/>
<path d="M317.687 240.569C314.578 239.947 309.726 238.181 309.726 238.181L304.95 253.306C304.95 253.306 310.689 255.531 314.503 256.49C317.874 257.338 328.036 258.878 328.036 258.878L328.832 242.957C325.723 242.335 320.796 241.191 317.687 240.569Z" fill="#30C070"/>
<path d="M367.879 241.35C364.799 242.101 358.327 242.945 358.327 242.945L360.683 258.879C360.683 258.879 367.164 258.032 371.026 257.29C374.439 256.634 384.559 253.31 384.559 253.31L378.228 238.962C375.147 239.712 370.959 240.6 367.879 241.35Z" fill="#30C070"/>
<path d="M337.104 194.874C352.448 194.874 366.318 197.185 376.334 200.905C381.343 202.766 385.362 204.969 388.12 207.391C390.878 209.813 392.329 212.411 392.329 215.072C392.329 217.734 390.878 220.331 388.12 222.753C385.362 225.174 381.343 227.378 376.334 229.238C366.318 232.958 352.448 235.27 337.104 235.27C321.76 235.27 307.89 232.958 297.875 229.238C292.865 227.378 288.846 225.174 286.089 222.753C283.33 220.331 281.88 217.734 281.88 215.072C281.88 212.411 283.33 209.813 286.089 207.391C288.846 204.969 292.865 202.766 297.875 200.905C307.89 197.185 321.76 194.874 337.104 194.874Z" fill="#2E9B5F" stroke="#28AA62"/>
<rect x="281.38" y="194.374" width="111.45" height="20.6978" fill="#2E9B5F"/>
<path d="M337.104 169.397C352.439 169.397 366.299 172.151 376.305 176.583C381.309 178.799 385.328 181.425 388.089 184.315C390.847 187.203 392.329 190.331 392.329 193.575C392.329 196.819 390.847 199.948 388.089 202.836C385.328 205.726 381.309 208.352 376.305 210.568C366.299 215 352.439 217.754 337.104 217.754C321.769 217.754 307.91 215 297.903 210.568C292.899 208.352 288.88 205.726 286.12 202.836C283.362 199.948 281.88 196.819 281.88 193.575C281.88 190.331 283.362 187.203 286.12 184.315C288.88 181.425 292.899 178.799 297.903 176.583C307.91 172.151 321.769 169.397 337.104 169.397Z" fill="#72F481" stroke="#87FF95"/>
<g filter="url(#filter9_i_3414_672)">
<ellipse cx="336.303" cy="193.585" rx="46.968" ry="18.3096" fill="#30C070"/>
</g>
<path d="M330.534 205.424L316.468 200.363L316.299 200.265L319.102 198.647L328.635 202.378L328.7 202.341L322.56 196.651L325.436 194.99L335.317 198.521L335.389 198.479L328.91 192.984L331.673 191.389L331.843 191.487L340.609 199.608L337.256 201.544L327.973 198.059L327.908 198.097L333.895 203.484L330.534 205.424Z" fill="#28AA62"/>
<path d="M349.73 190.405C350.732 190.983 351.217 191.639 351.184 192.373C351.168 193.11 350.525 193.901 349.253 194.747L350.627 195.54L349.003 196.478L347.63 195.685C346.235 196.341 344.829 196.664 343.412 196.655C342.007 196.646 340.687 196.322 339.454 195.685L342.087 194.164C343.1 194.656 344.166 194.711 345.287 194.332L342.621 192.793L342.451 192.853C341.051 193.37 339.787 193.651 338.662 193.698C337.52 193.766 336.435 193.503 335.406 192.909C334.517 192.396 334.113 191.774 334.194 191.044C334.275 190.313 334.822 189.59 335.834 188.875L334.445 188.072L336.068 187.135L337.458 187.937C338.724 187.374 340.046 187.084 341.425 187.065C342.798 187.056 343.986 187.331 344.988 187.89L342.354 189.411C341.616 189.041 340.779 189.008 339.841 189.313L342.095 190.615L342.354 190.521C343.814 189.965 345.141 189.655 346.337 189.593C347.549 189.528 348.68 189.798 349.73 190.405ZM338.169 190.223C337.62 190.708 337.587 191.09 338.072 191.37C338.557 191.65 339.241 191.644 340.124 191.352L338.169 190.223ZM346.943 193.413C347.686 192.816 347.748 192.339 347.129 191.981C346.816 191.801 346.458 191.715 346.054 191.725C345.645 191.743 345.157 191.854 344.592 192.056L346.943 193.413Z" fill="#28AA62"/>
<path d="M310.036 215.078C306.927 214.456 302.075 212.689 302.075 212.689L297.298 227.815C297.298 227.815 303.038 230.04 306.851 230.999C310.222 231.847 320.384 233.387 320.384 233.387L321.181 217.466C318.072 216.844 313.144 215.699 310.036 215.078Z" fill="#30C070"/>
<path d="M360.235 215.858C357.154 216.608 350.683 217.453 350.683 217.453L353.039 233.387C353.039 233.387 359.52 232.54 363.381 231.798C366.795 231.142 376.915 227.817 376.915 227.817L370.584 213.47C367.503 214.22 363.315 215.108 360.235 215.858Z" fill="#30C070"/>
<path d="M329.453 169.381C344.797 169.381 358.667 171.692 368.682 175.412C373.692 177.273 377.711 179.476 380.469 181.897C383.227 184.32 384.678 186.918 384.678 189.579C384.677 192.24 383.227 194.837 380.469 197.26C377.711 199.681 373.692 201.884 368.682 203.745C358.667 207.465 344.797 209.776 329.453 209.776C314.109 209.776 300.239 207.465 290.224 203.745C285.214 201.884 281.195 199.681 278.437 197.26C275.679 194.837 274.229 192.24 274.228 189.579C274.228 186.918 275.679 184.32 278.437 181.897C281.195 179.476 285.214 177.273 290.224 175.412C300.239 171.692 314.109 169.381 329.453 169.381Z" fill="#2E9B5F" stroke="#28AA62"/>
<rect x="273.728" y="168.881" width="111.45" height="20.6978" fill="#2E9B5F"/>
<path d="M329.453 143.904C344.788 143.904 358.647 146.658 368.654 151.09C373.658 153.306 377.677 155.932 380.437 158.822C383.195 161.71 384.677 164.838 384.678 168.082C384.678 171.326 383.196 174.455 380.437 177.343C377.677 180.233 373.658 182.859 368.654 185.075C358.647 189.507 344.788 192.261 329.453 192.261C314.118 192.261 300.259 189.507 290.252 185.075C285.248 182.859 281.229 180.233 278.469 177.343C275.711 174.455 274.228 171.326 274.228 168.082C274.229 164.838 275.711 161.71 278.469 158.822C281.229 155.932 285.248 153.306 290.252 151.09C300.259 146.658 314.118 143.904 329.453 143.904Z" fill="#72F481" stroke="#87FF95"/>
<g filter="url(#filter10_i_3414_672)">
<ellipse cx="328.651" cy="168.092" rx="46.968" ry="18.3096" fill="#30C070"/>
</g>
<path d="M322.883 179.931L308.817 174.87L308.647 174.772L311.451 173.154L320.984 176.885L321.049 176.848L314.909 171.157L317.785 169.497L327.666 173.028L327.738 172.986L321.259 167.491L324.022 165.896L324.192 165.994L332.957 174.115L329.605 176.05L320.322 172.566L320.257 172.603L326.244 177.991L322.883 179.931Z" fill="#28AA62"/>
<path d="M342.079 164.911C343.081 165.49 343.566 166.146 343.533 166.88C343.517 167.617 342.873 168.408 341.602 169.254L342.976 170.047L341.352 170.985L339.978 170.192C338.583 170.848 337.178 171.171 335.761 171.162C334.355 171.153 333.036 170.829 331.802 170.192L334.436 168.671C335.449 169.162 336.515 169.218 337.636 168.839L334.969 167.3L334.8 167.36C333.399 167.877 332.136 168.158 331.011 168.205C329.869 168.273 328.784 168.01 327.755 167.416C326.866 166.903 326.462 166.281 326.543 165.55C326.624 164.82 327.17 164.097 328.183 163.382L326.793 162.579L328.417 161.642L329.807 162.444C331.073 161.881 332.395 161.59 333.774 161.572C335.147 161.562 336.335 161.838 337.337 162.397L334.703 163.918C333.965 163.548 333.127 163.515 332.19 163.82L334.444 165.121L334.703 165.028C336.162 164.471 337.49 164.162 338.686 164.1C339.898 164.035 341.029 164.305 342.079 164.911ZM330.518 164.73C329.968 165.215 329.936 165.597 330.421 165.877C330.906 166.157 331.59 166.151 332.473 165.858L330.518 164.73ZM339.292 167.92C340.035 167.323 340.097 166.846 339.478 166.488C339.165 166.308 338.807 166.222 338.403 166.232C337.994 166.25 337.506 166.361 336.941 166.563L339.292 167.92Z" fill="#28AA62"/>
<path d="M302.393 189.584C299.284 188.963 294.433 187.196 294.433 187.196L289.656 202.322C289.656 202.322 295.395 204.547 299.209 205.506C302.58 206.354 312.742 207.894 312.742 207.894L313.538 191.973C310.429 191.351 305.502 190.206 302.393 189.584Z" fill="#30C070"/>
<path d="M352.584 190.365C349.504 191.115 343.033 191.96 343.033 191.96L345.388 207.894C345.388 207.894 351.869 207.047 355.731 206.305C359.144 205.648 369.264 202.324 369.264 202.324L362.933 187.977C359.853 188.727 355.665 189.615 352.584 190.365Z" fill="#30C070"/>
<path d="M344.748 148.983C360.092 148.983 373.962 151.295 383.977 155.015C388.987 156.875 393.006 159.078 395.763 161.5C398.522 163.922 399.972 166.52 399.972 169.182C399.972 171.843 398.522 174.44 395.763 176.862C393.006 179.284 388.987 181.487 383.977 183.348C373.962 187.068 360.092 189.379 344.748 189.379C329.403 189.379 315.534 187.068 305.518 183.348C300.509 181.487 296.49 179.284 293.732 176.862C290.974 174.44 289.523 171.843 289.523 169.182C289.523 166.52 290.973 163.922 293.732 161.5C296.49 159.078 300.509 156.875 305.518 155.015C315.534 151.295 329.403 148.983 344.748 148.983Z" fill="#2E9B5F" stroke="#28AA62"/>
<rect x="289.023" y="148.483" width="111.45" height="20.6978" fill="#2E9B5F"/>
<path d="M344.748 123.516C360.083 123.516 373.942 126.27 383.949 130.701C388.953 132.917 392.972 135.543 395.732 138.434C398.49 141.321 399.972 144.45 399.972 147.693C399.972 150.937 398.49 154.066 395.732 156.954C392.972 159.845 388.953 162.47 383.949 164.687C373.942 169.118 360.083 171.872 344.748 171.872C329.413 171.872 315.553 169.118 305.547 164.687C300.543 162.47 296.524 159.845 293.763 156.954C291.005 154.066 289.523 150.937 289.523 147.693C289.523 144.45 291.006 141.321 293.763 138.434C296.524 135.543 300.543 132.917 305.547 130.701C315.553 126.27 329.413 123.516 344.748 123.516Z" fill="#72F481" stroke="#87FF95"/>
<g filter="url(#filter11_i_3414_672)">
<ellipse cx="343.955" cy="147.694" rx="46.968" ry="18.3096" fill="#30C070"/>
</g>
<path d="M338.185 159.534L324.12 154.473L323.95 154.375L326.753 152.756L336.287 156.488L336.351 156.451L330.211 150.76L333.087 149.099L342.968 152.63L343.041 152.588L336.561 147.094L339.324 145.498L339.494 145.596L348.26 153.717L344.907 155.653L335.624 152.169L335.56 152.206L341.546 157.593L338.185 159.534Z" fill="#28AA62"/>
<path d="M357.382 144.514C358.383 145.092 358.868 145.749 358.836 146.482C358.82 147.219 358.176 148.011 356.905 148.857L358.278 149.65L356.654 150.587L355.281 149.794C353.886 150.45 352.48 150.774 351.064 150.764C349.658 150.755 348.338 150.432 347.105 149.794L349.739 148.274C350.751 148.765 351.818 148.821 352.938 148.441L350.272 146.902L350.102 146.963C348.702 147.479 347.439 147.76 346.313 147.807C345.171 147.876 344.086 147.613 343.057 147.019C342.169 146.506 341.765 145.884 341.845 145.153C341.926 144.422 342.473 143.699 343.485 142.984L342.096 142.182L343.72 141.244L345.109 142.047C346.375 141.484 347.697 141.193 349.076 141.174C350.45 141.165 351.637 141.44 352.639 142L350.005 143.52C349.267 143.15 348.43 143.118 347.493 143.423L349.747 144.724L350.005 144.631C351.465 144.074 352.793 143.765 353.988 143.702C355.2 143.637 356.331 143.908 357.382 144.514ZM345.82 144.332C345.271 144.817 345.239 145.2 345.723 145.48C346.208 145.759 346.892 145.753 347.775 145.461L345.82 144.332ZM354.594 147.523C355.338 146.926 355.399 146.448 354.78 146.091C354.468 145.91 354.109 145.825 353.706 145.834C353.296 145.853 352.809 145.963 352.243 146.165L354.594 147.523Z" fill="#28AA62"/>
<path d="M317.687 169.186C314.578 168.564 309.726 166.798 309.726 166.798L304.95 181.923C304.95 181.923 310.689 184.148 314.503 185.107C317.874 185.955 328.036 187.496 328.036 187.496L328.832 171.574C325.723 170.952 320.796 169.808 317.687 169.186Z" fill="#30C070"/>
<path d="M367.879 169.967C364.799 170.718 358.327 171.562 358.327 171.562L360.683 187.496C360.683 187.496 367.164 186.649 371.026 185.907C374.439 185.251 384.559 181.927 384.559 181.927L378.228 167.579C375.147 168.33 370.959 169.217 367.879 169.967Z" fill="#30C070"/>
<path d="M329.453 129.865C344.797 129.865 358.667 132.176 368.682 135.896C373.692 137.757 377.711 139.96 380.469 142.382C383.227 144.804 384.678 147.402 384.678 150.063C384.677 152.725 383.227 155.322 380.469 157.744C377.711 160.166 373.692 162.369 368.682 164.229C358.667 167.949 344.797 170.261 329.453 170.261C314.109 170.261 300.239 167.949 290.224 164.229C285.214 162.369 281.195 160.166 278.437 157.744C275.679 155.322 274.229 152.725 274.228 150.063C274.228 147.402 275.679 144.804 278.437 142.382C281.195 139.96 285.214 137.757 290.224 135.896C300.239 132.176 314.109 129.865 329.453 129.865Z" fill="#2E9B5F" stroke="#28AA62"/>
<rect x="273.728" y="129.365" width="111.45" height="20.6978" fill="#2E9B5F"/>
<path d="M329.453 104.389C344.788 104.389 358.647 107.143 368.654 111.574C373.658 113.79 377.677 116.416 380.437 119.307C383.195 122.194 384.677 125.323 384.678 128.566C384.678 131.81 383.196 134.939 380.437 137.827C377.677 140.718 373.658 143.344 368.654 145.56C358.647 149.991 344.788 152.745 329.453 152.745C314.118 152.745 300.259 149.991 290.252 145.56C285.248 143.344 281.229 140.718 278.469 137.827C275.711 134.939 274.228 131.81 274.228 128.566C274.229 125.323 275.711 122.194 278.469 119.307C281.229 116.416 285.248 113.79 290.252 111.574C300.259 107.143 314.118 104.389 329.453 104.389Z" fill="#72F481" stroke="#87FF95"/>
<g filter="url(#filter12_i_3414_672)">
<ellipse cx="328.651" cy="128.577" rx="46.968" ry="18.3096" fill="#30C070"/>
</g>
<path d="M302.393 150.069C299.284 149.447 294.433 147.681 294.433 147.681L289.656 162.806C289.656 162.806 295.395 165.031 299.209 165.99C302.58 166.838 312.742 168.378 312.742 168.378L313.538 152.457C310.429 151.835 305.502 150.691 302.393 150.069Z" fill="#30C070"/>
<path d="M352.584 150.841C349.504 151.591 343.033 152.435 343.033 152.435L345.388 168.369C345.388 168.369 351.869 167.522 355.731 166.78C359.144 166.124 369.264 162.8 369.264 162.8L362.933 148.452C359.853 149.203 355.665 150.09 352.584 150.841Z" fill="#30C070"/>
<path d="M211.245 65.3851C219.32 79.6346 224.474 93.7324 226.29 104.994C227.199 110.626 227.269 115.522 226.47 119.362C225.671 123.203 224.019 125.927 221.536 127.333C219.054 128.74 215.868 128.758 212.162 127.47C208.458 126.182 204.294 123.607 199.928 119.933C191.201 112.588 181.755 100.923 173.68 86.6733C165.605 72.424 160.451 58.3268 158.634 47.0656C157.726 41.4329 157.656 36.5368 158.454 32.6967C159.253 28.8554 160.905 26.1319 163.388 24.725C165.871 23.3181 169.056 23.3001 172.762 24.5885C176.467 25.8766 180.631 28.4524 184.996 32.1262C193.724 39.4711 203.17 51.1359 211.245 65.3851Z" fill="#2E9B5F" stroke="#28AA62"/>
<rect x="182.359" y="13.3994" width="118.94" height="22.0888" transform="rotate(60.4597 182.359 13.3994)" fill="#2E9B5F"/>
<path d="M234.889 51.9857C242.96 66.227 247.698 80.5488 248.849 92.1773C249.424 97.992 249.1 103.109 247.868 107.199C246.636 111.285 244.507 114.316 241.485 116.028C238.463 117.741 234.769 118.01 230.63 116.967C226.489 115.923 221.933 113.571 217.24 110.09C207.856 103.127 198.004 91.7036 189.933 77.4623C181.863 63.2211 177.125 48.9 175.974 37.2715C175.399 31.4568 175.721 26.3393 176.954 22.2498C178.186 18.1636 180.315 15.1324 183.337 13.42C186.358 11.7077 190.053 11.4387 194.191 12.4815C198.333 13.5253 202.89 15.8773 207.583 19.3591C216.967 26.3217 226.819 37.7446 234.889 51.9857Z" fill="#72F481" stroke="#87FF95"/>
<g filter="url(#filter13_i_3414_672)">
<ellipse cx="211.986" cy="63.985" rx="50.1246" ry="19.5401" transform="rotate(60.4597 211.986 63.985)" fill="#30C070"/>
</g>
<path d="M178.218 50.905C177.159 47.6913 176.246 42.2571 176.246 42.2571L159.69 45.7807C159.69 45.7807 160.644 52.2802 161.76 56.3258C162.746 59.9016 166.663 70.1477 166.663 70.1477L181.865 62.5095C180.806 59.2958 179.276 54.1186 178.218 50.905Z" fill="#30C070"/>
<path d="M203.897 97.92C201.58 95.4547 197.391 89.8905 197.391 89.8905L183.835 100.462C183.835 100.462 188.032 106.034 190.753 109.229C193.158 112.052 201.569 119.699 201.569 119.699L211.56 106.272C209.242 103.807 206.214 100.385 203.897 97.92Z" fill="#30C070"/>
<path d="M171.177 14.8076L173.313 20.5809L179.087 22.7172L173.313 24.8534L171.177 30.6267L169.041 24.8534L163.268 22.7172L169.041 20.5809L171.177 14.8076Z" fill="#FFE600"/>
<defs>
<filter id="filter0_i_3414_672" x="8.49255" y="239.9" width="100.249" height="39.0801" filterUnits="userSpaceOnUse" color-interpolation-filters="sRGB">
<feFlood flood-opacity="0" result="BackgroundImageFix"/>
<feBlend mode="normal" in="SourceGraphic" in2="BackgroundImageFix" result="shape"/>
<feColorMatrix in="SourceAlpha" type="matrix" values="0 0 0 0 0 0 0 0 0 0 0 0 0 0 0 0 0 0 127 0" result="hardAlpha"/>
<feMorphology radius="1" operator="dilate" in="SourceAlpha" result="effect1_innerShadow_3414_672"/>
<feOffset dy="4"/>
<feComposite in2="hardAlpha" operator="arithmetic" k2="-1" k3="1"/>
<feColorMatrix type="matrix" values="0 0 0 0 0 0 0 0 0 0 0 0 0 0 0 0 0 0 0.25 0"/>
<feBlend mode="normal" in2="shape" result="effect1_innerShadow_3414_672"/>
</filter>
<filter id="filter1_i_3414_672" x="14.465" y="225.034" width="86.1802" height="33.5957" filterUnits="userSpaceOnUse" color-interpolation-filters="sRGB">
<feFlood flood-opacity="0" result="BackgroundImageFix"/>
<feBlend mode="normal" in="SourceGraphic" in2="BackgroundImageFix" result="shape"/>
<feColorMatrix in="SourceAlpha" type="matrix" values="0 0 0 0 0 0 0 0 0 0 0 0 0 0 0 0 0 0 127 0" result="hardAlpha"/>
<feMorphology radius="1" operator="dilate" in="SourceAlpha" result="effect1_innerShadow_3414_672"/>
<feOffset dy="4"/>
<feComposite in2="hardAlpha" operator="arithmetic" k2="-1" k3="1"/>
<feColorMatrix type="matrix" values="0 0 0 0 0 0 0 0 0 0 0 0 0 0 0 0 0 0 0.25 0"/>
<feBlend mode="normal" in2="shape" result="effect1_innerShadow_3414_672"/>
</filter>
<filter id="filter2_i_3414_672" x="150.271" y="244.686" width="93.0765" height="36.2842" filterUnits="userSpaceOnUse" color-interpolation-filters="sRGB">
<feFlood flood-opacity="0" result="BackgroundImageFix"/>
<feBlend mode="normal" in="SourceGraphic" in2="BackgroundImageFix" result="shape"/>
<feColorMatrix in="SourceAlpha" type="matrix" values="0 0 0 0 0 0 0 0 0 0 0 0 0 0 0 0 0 0 127 0" result="hardAlpha"/>
<feMorphology radius="1" operator="dilate" in="SourceAlpha" result="effect1_innerShadow_3414_672"/>
<feOffset dy="4"/>
<feComposite in2="hardAlpha" operator="arithmetic" k2="-1" k3="1"/>
<feColorMatrix type="matrix" values="0 0 0 0 0 0 0 0 0 0 0 0 0 0 0 0 0 0 0.25 0"/>
<feBlend mode="normal" in2="shape" result="effect1_innerShadow_3414_672"/>
</filter>
<filter id="filter3_i_3414_672" x="141.424" y="222.175" width="93.0765" height="36.2842" filterUnits="userSpaceOnUse" color-interpolation-filters="sRGB">
<feFlood flood-opacity="0" result="BackgroundImageFix"/>
<feBlend mode="normal" in="SourceGraphic" in2="BackgroundImageFix" result="shape"/>
<feColorMatrix in="SourceAlpha" type="matrix" values="0 0 0 0 0 0 0 0 0 0 0 0 0 0 0 0 0 0 127 0" result="hardAlpha"/>
<feMorphology radius="1" operator="dilate" in="SourceAlpha" result="effect1_innerShadow_3414_672"/>
<feOffset dy="4"/>
<feComposite in2="hardAlpha" operator="arithmetic" k2="-1" k3="1"/>
<feColorMatrix type="matrix" values="0 0 0 0 0 0 0 0 0 0 0 0 0 0 0 0 0 0 0.25 0"/>
<feBlend mode="normal" in2="shape" result="effect1_innerShadow_3414_672"/>
</filter>
<filter id="filter4_i_3414_672" x="156.58" y="201.96" width="93.0765" height="36.2842" filterUnits="userSpaceOnUse" color-interpolation-filters="sRGB">
<feFlood flood-opacity="0" result="BackgroundImageFix"/>
<feBlend mode="normal" in="SourceGraphic" in2="BackgroundImageFix" result="shape"/>
<feColorMatrix in="SourceAlpha" type="matrix" values="0 0 0 0 0 0 0 0 0 0 0 0 0 0 0 0 0 0 127 0" result="hardAlpha"/>
<feMorphology radius="1" operator="dilate" in="SourceAlpha" result="effect1_innerShadow_3414_672"/>
<feOffset dy="4"/>
<feComposite in2="hardAlpha" operator="arithmetic" k2="-1" k3="1"/>
<feColorMatrix type="matrix" values="0 0 0 0 0 0 0 0 0 0 0 0 0 0 0 0 0 0 0.25 0"/>
<feBlend mode="normal" in2="shape" result="effect1_innerShadow_3414_672"/>
</filter>
<filter id="filter5_i_3414_672" x="150.271" y="169.127" width="93.0765" height="36.2842" filterUnits="userSpaceOnUse" color-interpolation-filters="sRGB">
<feFlood flood-opacity="0" result="BackgroundImageFix"/>
<feBlend mode="normal" in="SourceGraphic" in2="BackgroundImageFix" result="shape"/>
<feColorMatrix in="SourceAlpha" type="matrix" values="0 0 0 0 0 0 0 0 0 0 0 0 0 0 0 0 0 0 127 0" result="hardAlpha"/>
<feMorphology radius="1" operator="dilate" in="SourceAlpha" result="effect1_innerShadow_3414_672"/>
<feOffset dy="4"/>
<feComposite in2="hardAlpha" operator="arithmetic" k2="-1" k3="1"/>
<feColorMatrix type="matrix" values="0 0 0 0 0 0 0 0 0 0 0 0 0 0 0 0 0 0 0.25 0"/>
<feBlend mode="normal" in2="shape" result="effect1_innerShadow_3414_672"/>
</filter>
<filter id="filter6_i_3414_672" x="286.787" y="244.119" width="93.936" height="36.6191" filterUnits="userSpaceOnUse" color-interpolation-filters="sRGB">
<feFlood flood-opacity="0" result="BackgroundImageFix"/>
<feBlend mode="normal" in="SourceGraphic" in2="BackgroundImageFix" result="shape"/>
<feColorMatrix in="SourceAlpha" type="matrix" values="0 0 0 0 0 0 0 0 0 0 0 0 0 0 0 0 0 0 127 0" result="hardAlpha"/>
<feMorphology radius="1" operator="dilate" in="SourceAlpha" result="effect1_innerShadow_3414_672"/>
<feOffset dy="4"/>
<feComposite in2="hardAlpha" operator="arithmetic" k2="-1" k3="1"/>
<feColorMatrix type="matrix" values="0 0 0 0 0 0 0 0 0 0 0 0 0 0 0 0 0 0 0.25 0"/>
<feBlend mode="normal" in2="shape" result="effect1_innerShadow_3414_672"/>
</filter>
<filter id="filter7_i_3414_672" x="291.882" y="222.448" width="93.936" height="36.6191" filterUnits="userSpaceOnUse" color-interpolation-filters="sRGB">
<feFlood flood-opacity="0" result="BackgroundImageFix"/>
<feBlend mode="normal" in="SourceGraphic" in2="BackgroundImageFix" result="shape"/>
<feColorMatrix in="SourceAlpha" type="matrix" values="0 0 0 0 0 0 0 0 0 0 0 0 0 0 0 0 0 0 127 0" result="hardAlpha"/>
<feMorphology radius="1" operator="dilate" in="SourceAlpha" result="effect1_innerShadow_3414_672"/>
<feOffset dy="4"/>
<feComposite in2="hardAlpha" operator="arithmetic" k2="-1" k3="1"/>
<feColorMatrix type="matrix" values="0 0 0 0 0 0 0 0 0 0 0 0 0 0 0 0 0 0 0.25 0"/>
<feBlend mode="normal" in2="shape" result="effect1_innerShadow_3414_672"/>
</filter>
<filter id="filter8_i_3414_672" x="296.987" y="200.768" width="93.936" height="36.6191" filterUnits="userSpaceOnUse" color-interpolation-filters="sRGB">
<feFlood flood-opacity="0" result="BackgroundImageFix"/>
<feBlend mode="normal" in="SourceGraphic" in2="BackgroundImageFix" result="shape"/>
<feColorMatrix in="SourceAlpha" type="matrix" values="0 0 0 0 0 0 0 0 0 0 0 0 0 0 0 0 0 0 127 0" result="hardAlpha"/>
<feMorphology radius="1" operator="dilate" in="SourceAlpha" result="effect1_innerShadow_3414_672"/>
<feOffset dy="4"/>
<feComposite in2="hardAlpha" operator="arithmetic" k2="-1" k3="1"/>
<feColorMatrix type="matrix" values="0 0 0 0 0 0 0 0 0 0 0 0 0 0 0 0 0 0 0.25 0"/>
<feBlend mode="normal" in2="shape" result="effect1_innerShadow_3414_672"/>
</filter>
<filter id="filter9_i_3414_672" x="289.335" y="175.275" width="93.936" height="36.6191" filterUnits="userSpaceOnUse" color-interpolation-filters="sRGB">
<feFlood flood-opacity="0" result="BackgroundImageFix"/>
<feBlend mode="normal" in="SourceGraphic" in2="BackgroundImageFix" result="shape"/>
<feColorMatrix in="SourceAlpha" type="matrix" values="0 0 0 0 0 0 0 0 0 0 0 0 0 0 0 0 0 0 127 0" result="hardAlpha"/>
<feMorphology radius="1" operator="dilate" in="SourceAlpha" result="effect1_innerShadow_3414_672"/>
<feOffset dy="4"/>
<feComposite in2="hardAlpha" operator="arithmetic" k2="-1" k3="1"/>
<feColorMatrix type="matrix" values="0 0 0 0 0 0 0 0 0 0 0 0 0 0 0 0 0 0 0.25 0"/>
<feBlend mode="normal" in2="shape" result="effect1_innerShadow_3414_672"/>
</filter>
<filter id="filter10_i_3414_672" x="281.683" y="149.782" width="93.936" height="36.6191" filterUnits="userSpaceOnUse" color-interpolation-filters="sRGB">
<feFlood flood-opacity="0" result="BackgroundImageFix"/>
<feBlend mode="normal" in="SourceGraphic" in2="BackgroundImageFix" result="shape"/>
<feColorMatrix in="SourceAlpha" type="matrix" values="0 0 0 0 0 0 0 0 0 0 0 0 0 0 0 0 0 0 127 0" result="hardAlpha"/>
<feMorphology radius="1" operator="dilate" in="SourceAlpha" result="effect1_innerShadow_3414_672"/>
<feOffset dy="4"/>
<feComposite in2="hardAlpha" operator="arithmetic" k2="-1" k3="1"/>
<feColorMatrix type="matrix" values="0 0 0 0 0 0 0 0 0 0 0 0 0 0 0 0 0 0 0.25 0"/>
<feBlend mode="normal" in2="shape" result="effect1_innerShadow_3414_672"/>
</filter>
<filter id="filter11_i_3414_672" x="296.987" y="129.385" width="93.936" height="36.6191" filterUnits="userSpaceOnUse" color-interpolation-filters="sRGB">
<feFlood flood-opacity="0" result="BackgroundImageFix"/>
<feBlend mode="normal" in="SourceGraphic" in2="BackgroundImageFix" result="shape"/>
<feColorMatrix in="SourceAlpha" type="matrix" values="0 0 0 0 0 0 0 0 0 0 0 0 0 0 0 0 0 0 127 0" result="hardAlpha"/>
<feMorphology radius="1" operator="dilate" in="SourceAlpha" result="effect1_innerShadow_3414_672"/>
<feOffset dy="4"/>
<feComposite in2="hardAlpha" operator="arithmetic" k2="-1" k3="1"/>
<feColorMatrix type="matrix" values="0 0 0 0 0 0 0 0 0 0 0 0 0 0 0 0 0 0 0.25 0"/>
<feBlend mode="normal" in2="shape" result="effect1_innerShadow_3414_672"/>
</filter>
<filter id="filter12_i_3414_672" x="281.683" y="110.268" width="93.936" height="36.6191" filterUnits="userSpaceOnUse" color-interpolation-filters="sRGB">
<feFlood flood-opacity="0" result="BackgroundImageFix"/>
<feBlend mode="normal" in="SourceGraphic" in2="BackgroundImageFix" result="shape"/>
<feColorMatrix in="SourceAlpha" type="matrix" values="0 0 0 0 0 0 0 0 0 0 0 0 0 0 0 0 0 0 127 0" result="hardAlpha"/>
<feMorphology radius="1" operator="dilate" in="SourceAlpha" result="effect1_innerShadow_3414_672"/>
<feOffset dy="4"/>
<feComposite in2="hardAlpha" operator="arithmetic" k2="-1" k3="1"/>
<feColorMatrix type="matrix" values="0 0 0 0 0 0 0 0 0 0 0 0 0 0 0 0 0 0 0.25 0"/>
<feBlend mode="normal" in2="shape" result="effect1_innerShadow_3414_672"/>
</filter>
<filter id="filter13_i_3414_672" x="181.987" y="19.3154" width="59.9971" height="89.3398" filterUnits="userSpaceOnUse" color-interpolation-filters="sRGB">
<feFlood flood-opacity="0" result="BackgroundImageFix"/>
<feBlend mode="normal" in="SourceGraphic" in2="BackgroundImageFix" result="shape"/>
<feColorMatrix in="SourceAlpha" type="matrix" values="0 0 0 0 0 0 0 0 0 0 0 0 0 0 0 0 0 0 127 0" result="hardAlpha"/>
<feMorphology radius="1" operator="dilate" in="SourceAlpha" result="effect1_innerShadow_3414_672"/>
<feOffset dy="4"/>
<feComposite in2="hardAlpha" operator="arithmetic" k2="-1" k3="1"/>
<feColorMatrix type="matrix" values="0 0 0 0 0 0 0 0 0 0 0 0 0 0 0 0 0 0 0.25 0"/>
<feBlend mode="normal" in2="shape" result="effect1_innerShadow_3414_672"/>
</filter>
</defs>
</svg>
