<svg width="256" height="262" viewBox="0 0 256 262" fill="none" xmlns="http://www.w3.org/2000/svg">
<path d="M131.533 2.81821C66.2218 0.83481 9.64833 49.5695 1.10098 113.515C-8.24421 183.432 43.1907 246.339 106.479 256.415C185.199 268.948 261.554 196.446 254.698 117.793C249.533 58.5348 197.924 4.83424 131.533 2.81821Z" fill="#30C070"/>
<path d="M151.726 163.973C147.895 152.905 143.905 135.978 147.951 117.049C152.598 95.3125 163.594 90.8014 173.157 67.493C188.495 30.1075 176.118 2.92602 184.89 0.208C194.019 -2.62087 217.025 23.8494 216.872 52.5499C216.731 79.1289 196.78 97.8281 194.81 99.621C179.616 113.45 167.508 110.753 157.911 123.813C148.687 136.366 149.69 152.712 151.726 163.973Z" fill="url(#paint0_linear_3636_12300)"/>
<mask id="mask0_3636_12300" style="mask-type:luminance" maskUnits="userSpaceOnUse" x="146" y="0" width="71" height="164">
<path d="M151.726 163.973C147.895 152.905 143.905 135.978 147.951 117.049C152.598 95.3125 163.594 90.8014 173.157 67.493C188.495 30.1075 176.118 2.92602 184.89 0.208C194.019 -2.62087 217.025 23.8494 216.872 52.5499C216.731 79.1289 196.78 97.8281 194.81 99.621C179.616 113.45 167.508 110.753 157.911 123.813C148.687 136.366 149.69 152.712 151.726 163.973Z" fill="white"/>
</mask>
<g mask="url(#mask0_3636_12300)">
<path opacity="0.5" d="M152.1 188.83C144.575 158.653 145.974 132.655 156.256 111.558C162.468 98.8129 170.613 90.4607 177.799 83.0918C186.502 74.1671 194.018 66.4591 196.967 53.3376C201.139 34.7674 194.024 13.5384 175.817 -9.7602L176.114 -9.99219C194.394 13.3997 201.533 34.7345 197.334 53.4201C194.363 66.6459 186.812 74.3891 178.069 83.3549C170.902 90.7035 162.78 99.0326 156.594 111.724C146.352 132.739 144.963 158.65 152.466 188.738L152.1 188.83Z" fill="white"/>
</g>
<mask id="mask1_3636_12300" style="mask-type:luminance" maskUnits="userSpaceOnUse" x="146" y="0" width="71" height="164">
<path d="M151.726 163.973C147.895 152.905 143.905 135.978 147.951 117.049C152.598 95.3125 163.594 90.8014 173.157 67.493C188.495 30.1075 176.118 2.92602 184.89 0.208C194.019 -2.62087 217.025 23.8494 216.872 52.5499C216.731 79.1289 196.78 97.8281 194.81 99.621C179.616 113.45 167.508 110.753 157.911 123.813C148.687 136.366 149.69 152.712 151.726 163.973Z" fill="white"/>
</mask>
<g mask="url(#mask1_3636_12300)">
<path opacity="0.5" d="M195.824 57.9782L195.77 57.6034C194.911 51.5597 192.739 45.6719 189.489 40.5763C184.328 32.4838 177.543 27.8689 172.76 25.4223L172.931 25.0868C177.756 27.5546 184.6 32.2099 189.807 40.3736C193.018 45.4087 195.186 51.2102 196.088 57.1751C200.757 52.3996 204.395 46.6111 206.622 40.4113C210.465 29.7102 209.517 20.0332 208.044 13.7994L208.411 13.7129C209.895 19.9962 210.85 29.7505 206.976 40.5386C204.689 46.9068 200.925 52.8445 196.09 57.7097L195.824 57.9782Z" fill="white"/>
</g>
<mask id="mask2_3636_12300" style="mask-type:luminance" maskUnits="userSpaceOnUse" x="146" y="0" width="71" height="164">
<path d="M151.726 163.973C147.895 152.905 143.905 135.978 147.951 117.049C152.598 95.3125 163.594 90.8014 173.157 67.493C188.495 30.1075 176.118 2.92602 184.89 0.208C194.019 -2.62087 217.025 23.8494 216.872 52.5499C216.731 79.1289 196.78 97.8281 194.81 99.621C179.616 113.45 167.508 110.753 157.911 123.813C148.687 136.366 149.69 152.712 151.726 163.973Z" fill="white"/>
</mask>
<g mask="url(#mask2_3636_12300)">
<path opacity="0.5" d="M173.559 88.0497L173.801 87.713C176.152 84.4336 180.018 77.5415 179.493 68.23C179.011 59.6961 175.03 53.6102 172.699 50.7422L172.992 50.5045C175.351 53.4079 179.381 59.5689 179.869 68.2086C180.384 77.3273 176.739 84.1533 174.345 87.5948C183.713 86.6382 192.72 83.5228 200.418 78.573C218.057 67.2313 224.296 49.4381 226.16 42.3145L226.524 42.4097C224.649 49.5762 218.373 67.4766 200.622 78.8898C192.762 83.944 183.546 87.0978 173.972 88.0102L173.559 88.0497Z" fill="white"/>
</g>
<mask id="mask3_3636_12300" style="mask-type:luminance" maskUnits="userSpaceOnUse" x="146" y="0" width="71" height="164">
<path d="M151.726 163.973C147.895 152.905 143.905 135.978 147.951 117.049C152.598 95.3125 163.594 90.8014 173.157 67.493C188.495 30.1075 176.118 2.92602 184.89 0.208C194.019 -2.62087 217.025 23.8494 216.872 52.5499C216.731 79.1289 196.78 97.8281 194.81 99.621C179.616 113.45 167.508 110.753 157.911 123.813C148.687 136.366 149.69 152.712 151.726 163.973Z" fill="white"/>
</mask>
<g mask="url(#mask3_3636_12300)">
<path opacity="0.5" d="M154.627 115.946L154.617 115.759C154.401 111.382 154.401 106.948 154.617 102.58C155.083 93.1668 156.562 83.7393 159.013 74.5587L159.377 74.6559C156.932 83.8108 155.458 93.2119 154.994 102.598C154.781 106.892 154.778 111.249 154.984 115.553C165.372 115.057 175.327 112.638 184.575 108.363C205.493 98.6949 216.924 82.0069 221.876 72.9199L222.207 73.1002C217.233 82.2281 205.75 98.9915 184.734 108.706C175.385 113.027 165.319 115.46 154.814 115.938L154.627 115.946Z" fill="white"/>
</g>
<path d="M152.207 159.056C150.009 151.176 147.885 138.728 153.198 126.812C162.468 106.023 183.941 110.252 201.545 87.147C215.743 68.5113 209.264 55.9304 225.81 42.773C237.685 33.3303 253.297 30.0498 255.531 33.4814C257.932 37.1707 242.289 44.6513 235.173 63.1425C225.912 87.2045 242.213 101.01 232.351 116.095C224.85 127.569 212.623 123.862 185.964 136.79C170.465 144.306 159.164 153.044 152.207 159.056Z" fill="url(#paint1_linear_3636_12300)"/>
<mask id="mask4_3636_12300" style="mask-type:luminance" maskUnits="userSpaceOnUse" x="149" y="32" width="107" height="128">
<path d="M152.207 159.056C150.009 151.176 147.885 138.728 153.198 126.812C162.468 106.023 183.941 110.252 201.545 87.147C215.743 68.5113 209.264 55.9304 225.81 42.773C237.685 33.3303 253.297 30.0498 255.531 33.4814C257.932 37.1707 242.289 44.6513 235.173 63.1425C225.912 87.2045 242.213 101.01 232.351 116.095C224.85 127.569 212.623 123.862 185.964 136.79C170.465 144.306 159.164 153.044 152.207 159.056Z" fill="white"/>
</mask>
<g mask="url(#mask4_3636_12300)">
<path opacity="0.5" d="M148.56 186.484L148.184 186.483C148.214 157.705 155.301 137.047 169.249 125.082C175.883 119.392 182.311 117.063 188.528 114.811C196.169 112.042 203.386 109.427 210.029 100.812C215.967 93.1102 217.075 86.2655 218.247 79.0187C219.327 72.3419 220.444 65.4377 225.301 57.1242C232.585 44.6567 244.854 35.0478 261.766 28.5645L261.901 28.9162C245.071 35.3682 232.866 44.9228 225.627 57.3145C220.805 65.5673 219.694 72.4361 218.619 79.0789C217.439 86.3741 216.324 93.2648 210.327 101.042C203.617 109.744 196.35 112.377 188.656 115.165C182.472 117.406 176.076 119.723 169.495 125.369C155.634 137.258 148.591 157.82 148.56 186.484Z" fill="white"/>
</g>
<mask id="mask5_3636_12300" style="mask-type:luminance" maskUnits="userSpaceOnUse" x="149" y="32" width="107" height="128">
<path d="M152.207 159.056C150.009 151.176 147.885 138.728 153.198 126.812C162.468 106.023 183.941 110.252 201.545 87.147C215.743 68.5113 209.264 55.9304 225.81 42.773C237.685 33.3303 253.297 30.0498 255.531 33.4814C257.932 37.1707 242.289 44.6513 235.173 63.1425C225.912 87.2045 242.213 101.01 232.351 116.095C224.85 127.569 212.623 123.862 185.964 136.79C170.465 144.306 159.164 153.044 152.207 159.056Z" fill="white"/>
</mask>
<g mask="url(#mask5_3636_12300)">
<path opacity="0.5" d="M219.536 73.5664L219.359 73.0726C217.719 68.5068 216.969 63.7869 217.132 59.044C217.515 47.8651 222.94 39.6405 226.14 35.733L226.431 35.9718C223.262 39.8425 217.888 47.9887 217.509 59.057C217.353 63.5809 218.037 68.0843 219.539 72.4508C222.103 65.5638 225.931 60.5859 230.921 57.6519C236.163 54.5697 240.938 54.7041 245.995 54.8466C249.12 54.934 252.352 55.026 255.739 54.2961C266.105 52.0618 275.223 42.5619 282.838 26.0605L283.18 26.2184C275.513 42.833 266.307 52.4038 255.818 54.6644C252.387 55.4037 249.132 55.3113 245.984 55.2232C240.984 55.0821 236.261 54.949 231.112 57.9768C226.081 60.9348 222.246 66.0137 219.713 73.0727L219.536 73.5664Z" fill="white"/>
</g>
<mask id="mask6_3636_12300" style="mask-type:luminance" maskUnits="userSpaceOnUse" x="149" y="32" width="107" height="128">
<path d="M152.207 159.056C150.009 151.176 147.885 138.728 153.198 126.812C162.468 106.023 183.941 110.252 201.545 87.147C215.743 68.5113 209.264 55.9304 225.81 42.773C237.685 33.3303 253.297 30.0498 255.531 33.4814C257.932 37.1707 242.289 44.6513 235.173 63.1425C225.912 87.2045 242.213 101.01 232.351 116.095C224.85 127.569 212.623 123.862 185.964 136.79C170.465 144.306 159.164 153.044 152.207 159.056Z" fill="white"/>
</mask>
<g mask="url(#mask6_3636_12300)">
<path opacity="0.5" d="M207.834 103.765L207.804 103.568C207.15 99.2904 206.749 94.9329 206.612 90.6172C206.317 81.396 207.208 72.105 209.261 63.002L209.628 63.0848C207.583 72.1568 206.695 81.416 206.988 90.6052C207.123 94.8399 207.513 99.1145 208.147 103.314C214.385 101.991 220.174 99.4744 225.357 95.8339C233.237 90.2985 237.79 83.431 240.222 78.6447L240.558 78.8154C238.107 83.64 233.517 90.5622 225.573 96.1422C220.294 99.8502 214.392 102.401 208.029 103.724L207.834 103.765Z" fill="white"/>
</g>
<mask id="mask7_3636_12300" style="mask-type:luminance" maskUnits="userSpaceOnUse" x="149" y="32" width="107" height="128">
<path d="M152.207 159.056C150.009 151.176 147.885 138.728 153.198 126.812C162.468 106.023 183.941 110.252 201.545 87.147C215.743 68.5113 209.264 55.9304 225.81 42.773C237.685 33.3303 253.297 30.0498 255.531 33.4814C257.932 37.1707 242.289 44.6513 235.173 63.1425C225.912 87.2045 242.213 101.01 232.351 116.095C224.85 127.569 212.623 123.862 185.964 136.79C170.465 144.306 159.164 153.044 152.207 159.056Z" fill="white"/>
</mask>
<g mask="url(#mask7_3636_12300)">
<path opacity="0.5" d="M212.025 122.713C210.467 122.713 208.88 122.66 207.263 122.549C199.439 122.012 191.755 120.154 184.424 117.025L184.159 116.912L184.369 116.715C188.139 113.172 191.071 108.761 192.848 103.958C194.305 100.019 194.996 95.8773 194.902 91.6472L195.279 91.6387C195.374 95.9166 194.675 100.105 193.201 104.089C191.437 108.857 188.548 113.243 184.837 116.791C192.049 119.835 199.601 121.646 207.289 122.173C224.409 123.348 238.292 117.927 246.924 113.172L247.105 113.503C239.245 117.832 227.049 122.713 212.025 122.713Z" fill="white"/>
</g>
<mask id="mask8_3636_12300" style="mask-type:luminance" maskUnits="userSpaceOnUse" x="149" y="32" width="107" height="128">
<path d="M152.207 159.056C150.009 151.176 147.885 138.728 153.198 126.812C162.468 106.023 183.941 110.252 201.545 87.147C215.743 68.5113 209.264 55.9304 225.81 42.773C237.685 33.3303 253.297 30.0498 255.531 33.4814C257.932 37.1707 242.289 44.6513 235.173 63.1425C225.912 87.2045 242.213 101.01 232.351 116.095C224.85 127.569 212.623 123.862 185.964 136.79C170.465 144.306 159.164 153.044 152.207 159.056Z" fill="white"/>
</mask>
<g mask="url(#mask8_3636_12300)">
<path opacity="0.5" d="M195.812 139.4C193.744 136.885 189.224 132.425 182.188 130.81C169.857 127.979 160.214 136.298 159.156 137.256L158.813 137.565L158.841 137.105C159.108 132.672 159.94 128.304 161.315 124.123C163.643 117.043 167.445 110.619 172.616 105.027L172.893 105.283C167.759 110.834 163.984 117.213 161.673 124.241C160.355 128.249 159.539 132.43 159.247 136.676C161.336 134.897 170.616 127.767 182.272 130.443C189.417 132.083 194.004 136.609 196.103 139.161L195.812 139.4Z" fill="white"/>
</g>
<path d="M151.187 152.271C155.597 148.48 162.404 143.249 171.546 138.593C192.834 127.751 203.622 131.82 215.253 121.755C229.552 109.382 226.773 91.5292 231.466 91.6431C238.367 91.8108 252.237 130.592 235.328 146.803C224.499 157.184 204.917 154.596 200.92 153.96C191.457 152.456 188.889 149.11 179.299 147.86C167.637 146.34 157.645 149.49 151.187 152.271Z" fill="url(#paint2_linear_3636_12300)"/>
<mask id="mask9_3636_12300" style="mask-type:luminance" maskUnits="userSpaceOnUse" x="151" y="91" width="93" height="64">
<path d="M151.187 152.271C155.597 148.48 162.404 143.249 171.546 138.593C192.834 127.751 203.622 131.82 215.253 121.755C229.552 109.382 226.773 91.5292 231.466 91.6431C238.367 91.8108 252.237 130.592 235.328 146.803C224.499 157.184 204.917 154.596 200.92 153.96C191.457 152.456 188.889 149.11 179.299 147.86C167.637 146.34 157.645 149.49 151.187 152.271Z" fill="white"/>
</mask>
<g mask="url(#mask9_3636_12300)">
<path opacity="0.5" d="M145.946 155.609L145.716 155.311C158.341 145.546 170.952 140.692 183.204 140.894C189.809 141.001 194.942 142.516 199.47 143.852C205.429 145.611 210.577 147.129 216.801 144.569C224.748 141.298 230.819 132.841 233.895 120.756C238.823 101.392 227.913 85.2269 224.452 80.7339L224.75 80.5039C228.238 85.031 239.23 101.32 234.26 120.848C231.154 133.052 225.004 141.6 216.944 144.917C210.597 147.529 205.391 145.992 199.363 144.214C194.858 142.884 189.752 141.377 183.198 141.271C171.04 141.068 158.502 145.897 145.946 155.609Z" fill="white"/>
<path opacity="0.5" d="M229.776 131.995L229.847 131.623C230.897 126.073 230.897 120.457 229.847 114.929C228.689 108.838 226.204 102.911 222.66 97.7907L222.97 97.5762C226.544 102.74 229.05 108.716 230.217 114.859C231.252 120.308 231.276 125.844 230.286 131.318C233.265 129.786 237.292 127.003 240.23 122.262C246.494 112.155 242.863 101.031 242.071 98.9035L242.425 98.7721C243.227 100.928 246.907 112.204 240.55 122.461C237.453 127.459 233.166 130.313 230.115 131.827L229.776 131.995Z" fill="white"/>
<path opacity="0.5" d="M221.814 153.111C217.916 153.111 213.714 152.575 209.386 151.173C204.121 149.468 199.27 146.701 194.966 142.951L194.535 142.576L195.105 142.622C203.372 143.283 211.117 139.6 215.312 133.006C219.791 125.963 218.312 118.395 217.751 116.243L218.116 116.148C218.686 118.337 220.191 126.036 215.63 133.209C211.456 139.77 203.838 143.505 195.642 143.036C199.8 146.566 204.46 149.181 209.502 150.815C223.856 155.464 236.824 150.506 241.732 148.158L241.895 148.498C238.424 150.157 230.959 153.111 221.814 153.111Z" fill="white"/>
<path opacity="0.5" d="M200.847 162.339C198.827 158.017 194.021 150.098 184.525 145.628C180.529 143.746 176.206 142.707 171.678 142.539L171.667 142.163C179.249 141.423 184.768 139.278 188.071 135.788C188.368 135.473 188.752 135.038 189.334 134.38C190.116 133.494 191.299 132.156 193.114 130.159C194.927 128.165 196.761 126.185 198.565 124.273L198.839 124.532C197.036 126.442 195.204 128.421 193.393 130.412C191.58 132.407 190.398 133.744 189.617 134.629C189.032 135.291 188.646 135.727 188.345 136.046C185.283 139.282 180.377 141.381 173.743 142.299C177.578 142.668 181.251 143.67 184.686 145.287C194.288 149.807 199.147 157.811 201.189 162.18L200.847 162.339Z" fill="white"/>
</g>
<path d="M22.4541 157.17L122.071 163.241L232.673 156.867L123.587 191.452L22.4541 157.17Z" fill="url(#paint3_linear_3636_12300)"/>
<path d="M103.094 261.612L22.0341 230.001C14.0659 227.856 7.875 219.961 7.875 212.305V212.221C7.875 204.565 14.0659 199.428 22.0341 200.833L108.834 225.037L103.094 261.612Z" fill="url(#paint4_linear_3636_12300)"/>
<path d="M232.809 235.302L106.906 259.896C98.8985 260.791 92.3154 255.207 92.3154 247.412V242.124C92.3154 234.329 98.8985 227.486 106.906 226.849L232.809 206.355C227.152 216.887 225.846 226.739 232.809 235.302Z" fill="url(#paint5_linear_3636_12300)"/>
<path d="M233.921 236.721L107.977 261.538C97.5326 262.722 88.8779 255.407 88.8779 245.21V245.097C88.8779 234.9 97.5326 225.928 107.977 225.114L233.921 204.822C234.69 204.762 235.313 205.403 235.313 206.253C235.313 207.103 234.691 207.843 233.921 207.906L107.977 228.635C99.5745 229.319 92.6371 236.547 92.6371 244.738V244.85C92.6371 253.04 99.5745 258.941 107.977 258.017L233.921 233.637C234.69 233.552 235.313 234.173 235.313 235.023C235.313 235.874 234.69 236.634 233.921 236.721Z" fill="url(#paint6_linear_3636_12300)"/>
<path d="M106.418 225.125L22.0341 200.835C14.0659 199.43 7.875 188.985 7.875 177.489V177.363C7.875 165.867 14.0659 156.744 22.0341 157.04L111.43 170.606L106.418 225.125Z" fill="url(#paint7_linear_3636_12300)"/>
<path d="M232.809 202.593L114.071 222.012C102.169 222.91 92.3154 214.165 92.3154 202.461V194.521C92.3154 182.817 102.169 173.06 114.071 172.736L232.809 159.129C227.133 174.909 225.865 189.686 232.809 202.593Z" fill="url(#paint8_linear_3636_12300)"/>
<path d="M233.921 204.824L107.977 225.115C97.5326 225.93 88.8779 214.148 88.8779 198.836V198.667C88.8779 183.355 97.5326 170.683 107.977 170.423L233.921 156.928C234.69 156.909 235.313 157.928 235.313 159.205C235.313 160.482 234.691 161.535 233.921 161.558L107.977 175.711C99.5745 175.963 92.6371 186.176 92.6371 198.474V198.642C92.6371 210.94 99.5745 220.44 107.977 219.828L233.921 200.194C234.69 200.138 235.313 201.127 235.313 202.404C235.313 203.68 234.69 204.764 233.921 204.824Z" fill="url(#paint9_linear_3636_12300)"/>
<path opacity="0.5" d="M80.8518 213.603L61.2898 208.308C57.1747 197.076 57.4841 186.758 61.2898 174.426L80.8518 177.894C77.2397 190.871 77.7865 202.625 80.8518 213.603Z" fill="white"/>
<path d="M236.289 150.474L21.1289 148.398V154.539C21.1289 156.205 22.0674 157.622 23.3383 157.875L84.1791 169.966C84.9012 170.109 85.6333 170.148 86.3619 170.079L233.95 156.294C235.268 156.171 236.289 154.749 236.289 153.037V150.474Z" fill="url(#paint10_linear_3636_12300)"/>
<path d="M167.025 140.52L23.4965 151.752C20.9281 151.953 18.8398 149.817 18.8398 146.981V33.3523C18.8398 30.516 20.9281 28.2168 23.4965 28.2168H167.025C169.141 28.2168 170.852 30.2952 170.852 32.8592V135.578C170.852 138.142 169.141 140.354 167.025 140.52Z" fill="url(#paint11_linear_3636_12300)"/>
<path d="M169.314 140.52L25.7855 151.752C23.2171 151.953 21.1289 149.817 21.1289 146.981V33.3523C21.1289 30.516 23.2171 28.2168 25.7855 28.2168H169.314C171.43 28.2168 173.141 30.2952 173.141 32.8592V135.578C173.141 138.142 171.43 140.354 169.314 140.52Z" fill="url(#paint12_linear_3636_12300)"/>
<path d="M164.843 133.278L31.1607 143.035C29.0706 143.188 27.3721 141.435 27.3721 139.119V39.6368C27.3721 37.3215 29.0706 35.4367 31.1607 35.4271L164.843 34.8145C166.588 34.8065 168 36.5096 168 38.6185V129.229C168 131.338 166.588 133.151 164.843 133.278Z" fill="url(#paint13_linear_3636_12300)"/>
<path d="M102.618 31.3245C102.618 32.3803 101.879 33.2387 100.967 33.2418C100.054 33.2449 99.3125 32.3895 99.3125 31.3314C99.3125 30.2732 100.054 29.4148 100.967 29.4141C101.879 29.4134 102.618 30.2687 102.618 31.3245Z" fill="white"/>
<path opacity="0.12" d="M134.733 109.355C123.669 102.762 114.968 111.116 106.572 102.873C101.482 97.8763 103.981 94.1498 97.7172 86.6822C90.7798 78.411 86.2631 81.1914 79.2911 73.7474C70.4754 64.3348 74.8845 57.0117 67.2909 50.2538C58.0788 42.0555 48.1441 49.6435 39.3748 41.7811C35.5925 38.3901 33.5173 33.46 32.4335 28.2168H23.8534C22.3499 28.2168 21.1289 29.5663 21.1289 31.2311V149.018C21.1289 150.682 22.3499 151.936 23.8534 151.818L170.133 140.319C170.851 140.263 171.487 139.799 171.896 139.126C161.188 138.693 154.609 134.718 150.404 130.608C142.178 122.569 143.605 114.641 134.733 109.355Z" fill="white"/>
<path d="M165.733 140.01L21.1289 151.833L84.1791 164.363C84.9012 164.507 85.6333 164.545 86.3619 164.477L236.289 150.472L168.034 140.09C167.27 139.974 166.5 139.947 165.733 140.01Z" fill="url(#paint14_linear_3636_12300)"/>
<path opacity="0.3" d="M42.2285 152.131L162.616 142.141L199.875 147.763L80.5244 158.442L42.2285 152.131Z" fill="url(#paint15_linear_3636_12300)"/>
<path d="M157.386 73.1814L130.774 59.4364L102.858 45.0176L43.3291 75.7648L43.5187 75.8542V76.9457L102.916 104.946L157.333 74.2684V73.2264L157.305 73.227L157.386 73.1814Z" fill="white"/>
<path d="M137.425 88.9961L102.859 108.542L64.8564 90.773V116.481C64.8564 120.695 68.0646 124.217 72.2609 124.6C79.06 125.221 89.8951 125.834 102.007 125.087C113.799 124.36 124.126 122.503 130.54 121.122C134.559 120.257 137.425 116.702 137.425 112.591L137.425 88.9961Z" fill="white"/>
<path d="M157.353 113.254C156.97 113.275 157.003 112.934 157.003 112.516V75.5869C157.003 74.7516 156.226 74.2219 155.459 74.24L103.262 75.4648C102.844 75.4746 102.506 75.1216 102.506 74.6849C102.506 74.2482 102.844 73.8797 103.262 73.8703L155.459 72.7097C156.992 72.6755 157.703 73.8999 157.703 75.5698V112.478C157.703 112.896 157.736 113.233 157.353 113.254Z" fill="white"/>
<path d="M158.462 73.6381C158.108 72.9521 158.604 72.6411 157.704 72.6611L103.262 73.8717C102.844 73.8811 102.506 74.2495 102.506 74.6862C102.506 75.1228 102.844 75.4758 103.262 75.4661L155.459 74.2413C155.885 74.2313 156.313 74.3904 156.61 74.6764L157.333 74.269L158.462 73.6381Z" fill="url(#paint16_linear_3636_12300)"/>
<path d="M159.015 105.494L158.334 104.382C158.108 103.958 157.639 103.715 157.182 103.745C156.724 103.774 156.284 104.076 156.071 104.529L155.469 105.753C155.33 106.048 155.23 106.375 155.23 106.701V116.761C155.23 116.977 156.279 117.092 157.333 117.031C158.386 116.97 159.429 116.735 159.429 116.519V106.465C159.429 106.117 159.172 105.789 159.015 105.494Z" fill="white"/>
<path d="M212.514 201.431C209.309 204.244 204.475 204.015 201.495 200.965C197.78 197.162 190.812 194.582 178.324 202.486C156.018 216.603 180.672 256.533 194.759 257.7C208.847 258.866 213.543 255.359 220.587 257.7C227.631 260.04 237.61 244.376 241.719 230.196C245.828 216.016 235.262 199.182 224.696 197.327C219.496 196.413 215.575 198.745 212.514 201.431Z" fill="url(#paint17_linear_3636_12300)"/>
<path opacity="0.3" d="M230.926 244.201C230.926 244.201 230.926 244.201 225.562 247.518C220.198 250.835 217.948 237.94 208.084 229.84C198.221 221.74 178.84 227.571 179.878 213.647C180.396 206.705 183.881 201.59 187.246 198.205C184.642 198.994 181.683 200.361 178.324 202.486C156.018 216.603 180.672 256.534 194.759 257.7C208.847 258.867 213.543 255.36 220.587 257.7C226.635 259.71 234.845 248.448 239.648 236.248L230.926 244.201Z" fill="url(#paint18_linear_3636_12300)"/>
<path d="M208.889 203.816C208.889 203.816 218.972 187.392 201.951 182.696C184.93 178.001 177.691 171.701 177.691 171.701C177.691 171.701 181.996 185.39 185.126 195.684C188.256 205.978 203.306 208.305 208.889 203.816Z" fill="url(#paint19_linear_3636_12300)"/>
<path d="M213.535 184.673C210.6 185.012 211.774 180.422 208.96 183.485C206.511 186.151 206.079 200.838 206.008 204.601C205.999 205.091 206.381 205.497 206.871 205.52C207.386 205.543 207.817 205.131 207.815 204.615C207.778 196.523 216.506 187.392 217.448 185.536C218.426 183.607 216.469 184.334 213.535 184.673Z" fill="url(#paint20_linear_3636_12300)"/>
<path opacity="0.3" d="M201.6 194.264C200.268 186.887 194.557 188.247 183.014 178.269C181.154 176.661 179.605 175.127 178.313 173.684C179.618 177.846 182.719 187.768 185.126 195.684C187.917 204.864 200.185 207.707 206.769 205.033C204.593 203.108 202.603 199.82 201.6 194.264Z" fill="url(#paint21_linear_3636_12300)"/>
<defs>
<linearGradient id="paint0_linear_3636_12300" x1="205.026" y1="26.9123" x2="155.826" y2="106.138" gradientUnits="userSpaceOnUse">
<stop stop-color="#FCB148"/>
<stop offset="0.0521" stop-color="#FDBA46"/>
<stop offset="0.1424" stop-color="#FFC244"/>
<stop offset="0.3183" stop-color="#FFC444"/>
<stop offset="0.4849" stop-color="#FDB946"/>
<stop offset="0.7754" stop-color="#F99C4D"/>
<stop offset="0.8658" stop-color="#F8924F"/>
<stop offset="1" stop-color="#F8924F"/>
</linearGradient>
<linearGradient id="paint1_linear_3636_12300" x1="219.703" y1="41.916" x2="180.348" y2="159.337" gradientUnits="userSpaceOnUse">
<stop stop-color="#AA80F9"/>
<stop offset="0.9964" stop-color="#6165D7"/>
</linearGradient>
<linearGradient id="paint2_linear_3636_12300" x1="245.702" y1="106.482" x2="130.052" y2="201.48" gradientUnits="userSpaceOnUse">
<stop offset="0.0036" stop-color="#E38DDD"/>
<stop offset="1" stop-color="#9571F6"/>
</linearGradient>
<linearGradient id="paint3_linear_3636_12300" x1="22.4541" y1="174.16" x2="232.673" y2="174.16" gradientUnits="userSpaceOnUse">
<stop stop-color="#AA80F9"/>
<stop offset="0.9964" stop-color="#6165D7"/>
</linearGradient>
<linearGradient id="paint4_linear_3636_12300" x1="49.0873" y1="250.103" x2="63.1523" y2="218.112" gradientUnits="userSpaceOnUse">
<stop stop-color="#FFC444"/>
<stop offset="0.9964" stop-color="#F36F56"/>
</linearGradient>
<linearGradient id="paint5_linear_3636_12300" x1="92.3154" y1="233.173" x2="232.809" y2="233.173" gradientUnits="userSpaceOnUse">
<stop offset="0.494" stop-color="#EAEDF3"/>
<stop offset="1" stop-color="white"/>
</linearGradient>
<linearGradient id="paint6_linear_3636_12300" x1="88.8779" y1="233.241" x2="235.313" y2="233.241" gradientUnits="userSpaceOnUse">
<stop stop-color="#FFC444"/>
<stop offset="0.9964" stop-color="#F36F56"/>
</linearGradient>
<linearGradient id="paint7_linear_3636_12300" x1="70.1103" y1="155.379" x2="44.463" y2="241.77" gradientUnits="userSpaceOnUse">
<stop stop-color="#AA80F9"/>
<stop offset="0.9964" stop-color="#6165D7"/>
</linearGradient>
<linearGradient id="paint8_linear_3636_12300" x1="92.3154" y1="190.602" x2="232.809" y2="190.602" gradientUnits="userSpaceOnUse">
<stop offset="0.494" stop-color="#EAEDF3"/>
<stop offset="1" stop-color="white"/>
</linearGradient>
<linearGradient id="paint9_linear_3636_12300" x1="88.8779" y1="191.041" x2="235.313" y2="191.041" gradientUnits="userSpaceOnUse">
<stop stop-color="#AA80F9"/>
<stop offset="0.9964" stop-color="#6165D7"/>
</linearGradient>
<linearGradient id="paint10_linear_3636_12300" x1="111.959" y1="158.94" x2="96.8286" y2="165.295" gradientUnits="userSpaceOnUse">
<stop stop-color="#40447E"/>
<stop offset="0.9964" stop-color="#3C3B6B"/>
</linearGradient>
<linearGradient id="paint11_linear_3636_12300" x1="91.6075" y1="85.8134" x2="74.8017" y2="92.8718" gradientUnits="userSpaceOnUse">
<stop stop-color="#40447E"/>
<stop offset="0.9964" stop-color="#3C3B6B"/>
</linearGradient>
<linearGradient id="paint12_linear_3636_12300" x1="21.1289" y1="89.9911" x2="173.141" y2="89.9911" gradientUnits="userSpaceOnUse">
<stop stop-color="#40447E"/>
<stop offset="0.9964" stop-color="#3C3B6B"/>
</linearGradient>
<linearGradient id="paint13_linear_3636_12300" x1="128.236" y1="59.6068" x2="42.8264" y2="129.032" gradientUnits="userSpaceOnUse">
<stop stop-color="#28AA62"/>
<stop offset="1" stop-color="#2E9B5F"/>
</linearGradient>
<linearGradient id="paint14_linear_3636_12300" x1="21.1289" y1="152.243" x2="236.289" y2="152.243" gradientUnits="userSpaceOnUse">
<stop stop-color="#40447E"/>
<stop offset="0.9964" stop-color="#3C3B6B"/>
</linearGradient>
<linearGradient id="paint15_linear_3636_12300" x1="42.2285" y1="150.291" x2="199.875" y2="150.291" gradientUnits="userSpaceOnUse">
<stop stop-color="#40447E"/>
<stop offset="0.9964" stop-color="#3C3B6B"/>
</linearGradient>
<linearGradient id="paint16_linear_3636_12300" x1="138.694" y1="67.2898" x2="55.3623" y2="135.026" gradientUnits="userSpaceOnUse">
<stop stop-color="#FF9085"/>
<stop offset="1" stop-color="#FB6FBB"/>
</linearGradient>
<linearGradient id="paint17_linear_3636_12300" x1="217.331" y1="208.806" x2="178.002" y2="262.222" gradientUnits="userSpaceOnUse">
<stop stop-color="#FF9085"/>
<stop offset="1" stop-color="#FB6FBB"/>
</linearGradient>
<linearGradient id="paint18_linear_3636_12300" x1="217.33" y1="208.807" x2="178.002" y2="262.223" gradientUnits="userSpaceOnUse">
<stop stop-color="#FF9085"/>
<stop offset="1" stop-color="#FB6FBB"/>
</linearGradient>
<linearGradient id="paint19_linear_3636_12300" x1="191.672" y1="167.356" x2="202.237" y2="217.637" gradientUnits="userSpaceOnUse">
<stop stop-color="#A1F094"/>
<stop offset="1" stop-color="#4FC3BA"/>
</linearGradient>
<linearGradient id="paint20_linear_3636_12300" x1="218.989" y1="179.789" x2="198.731" y2="207.304" gradientUnits="userSpaceOnUse">
<stop stop-color="#311944"/>
<stop offset="1" stop-color="#6B3976"/>
</linearGradient>
<linearGradient id="paint21_linear_3636_12300" x1="188.077" y1="168.112" x2="198.642" y2="218.393" gradientUnits="userSpaceOnUse">
<stop stop-color="#38E8C7"/>
<stop offset="1" stop-color="#425F63"/>
</linearGradient>
</defs>
</svg>
