<svg width="1296" height="1296" viewBox="0 0 1296 1296" fill="none" xmlns="http://www.w3.org/2000/svg">
<path d="M1296 262.233V801.9C1237.95 868.048 1193.74 944.996 1163.37 1032.74C1134.34 1117.12 1120.84 1204.87 1122.87 1296H1078.31V1237.28C1078.31 1214.32 1080 1194.74 1083.37 1178.54L1091.48 1135.01L1100.59 1092.49L1129.94 993.267C1141.43 956.807 1153.58 925.08 1166.4 898.089C1173.15 883.237 1185.3 864 1202.84 840.378L1240.31 784.689L1251.46 751.278L1255.5 715.833C1256.85 672.633 1254.48 615.596 1248.41 544.722L1218.03 273.378C1206.56 164.704 1199.81 73.5782 1197.79 0H1285.88C1285.2 53.3261 1285.54 97.2 1286.89 131.622C1288.24 179.548 1291.27 223.085 1296 262.233ZM1296 904.167V1169.43C1291.95 1187.66 1288.91 1208.59 1286.89 1232.21L1283.86 1296H1198.8L1197.79 1184.62C1197.79 1140.07 1200.15 1103.29 1204.88 1074.27C1208.93 1047.94 1221.42 1018.58 1242.33 986.178L1296 904.167ZM1026.68 1296H979.089L984.143 1187.65L996.3 1079.32C1005.08 1019.25 1013.18 972.674 1020.6 939.6C1032.07 888.97 1046.59 844.417 1064.15 805.944L1096.55 727.989L1116.79 645.978L1123.88 581.178C1124.55 556.874 1121.52 535.948 1114.77 518.4L1072.23 394.878L1029.72 271.356C1013.52 218.704 1001.7 174.152 994.278 137.7C984.152 88.4261 979.089 42.5261 979.089 0H1026.68C1027.35 73.5782 1037.82 147.152 1058.07 220.722C1078.31 292.278 1107.33 360.456 1145.13 425.256L1118.82 282.489L1094.51 139.722L1083.37 70.8782L1077.31 0H1122.88L1125.91 58.7218L1133 117.456L1165.4 328.056L1196.79 539.667C1205.56 609.867 1206.23 677.367 1198.81 742.167L1190.71 784.676C1185.99 800.211 1179.24 813.041 1170.47 823.167L1146.17 848.478C1136.72 858.604 1129.63 868.052 1124.9 876.822C1110.73 900.452 1098.25 934.204 1087.45 978.078L1056.05 1082.37C1043.9 1112.74 1035.8 1147.84 1031.75 1187.67C1028.38 1214.67 1026.68 1250.78 1026.68 1296ZM943.669 1296H836.309C818.078 1210.27 810.657 1128.94 814.044 1051.99C817.413 1009.46 825.172 974.026 837.32 945.678L875.811 848.478C887.95 812.026 895.372 777.941 898.076 746.224C900.772 722.593 899.087 699.641 893.022 677.367C886.939 654.411 876.809 633.485 862.631 614.589C842.387 587.589 817.417 560.252 787.722 532.578L775.565 564.978L764.42 599.4C744.176 658.126 722.913 709.763 700.631 754.311C673.631 808.311 643.261 855.226 609.522 895.057C596.691 914.626 585.55 937.574 576.098 963.9C569.35 984.152 562.939 1009.13 556.865 1038.82C542.022 1113.07 534.6 1198.8 534.6 1296H450.567L454.611 1137.03C457.98 1078.99 465.065 1026 475.865 978.078C490.726 914.626 511.652 865.348 538.644 830.243L569.022 797.844L599.4 765.444C621 739.8 637.874 710.1 650.022 676.344C661.496 644.626 667.911 611.215 669.267 576.111C670.615 531.563 666.9 477.563 658.122 414.111L633.822 254.146C622.348 158.293 618.304 73.5782 621.691 0H752.302C746.902 105.304 755.002 200.82 776.602 286.546C797.528 366.189 834.313 436.389 886.957 497.146L951.757 564.978C978.083 592.652 996.983 617.626 1008.46 639.9C1031.41 682.426 1035.47 735.415 1020.61 798.867C1011.83 838.689 994.961 885.6 969.991 939.6C959.865 961.874 952.102 987.189 946.702 1015.55C941.976 1037.15 938.602 1063.47 936.58 1094.51C933.202 1157.29 935.574 1224.45 943.669 1296ZM752.302 1296H621.678V1159.31C624.374 1108.02 631.796 1063.13 643.944 1024.66C681.07 915.3 724.948 816.748 775.578 729L798.867 689.511L826.2 653.067C837 693.563 832.274 743.511 812.022 802.911C763.422 949.385 743.507 1113.75 752.276 1296M372.6 1296H232.878L235.911 1221.08L241.989 1146.14L275.4 853.546L306.789 560.935C316.915 456.987 308.815 362.824 282.489 278.446C267.637 304.772 254.811 337.172 244.011 375.646L217.689 476.902C213.637 491.754 211.274 509.98 210.6 531.58L211.611 586.246L204.522 730.024L181.233 865.702C168.411 928.463 160.315 973.685 156.946 1001.37C153.576 1024.99 152.228 1052.66 152.902 1084.39L155.935 1167.41L160.989 1232.21C163.02 1256.52 166.061 1277.78 170.113 1296H74.9218V1053L73.9109 975.033C38.1413 1031.74 13.5043 1094.85 0 1164.38V900.124C50.6304 809.663 82.6934 711.785 96.1891 606.489C106.989 527.52 107.326 426.604 97.2 303.744L83.0218 151.891C78.3043 92.4826 75.6043 41.8522 74.9218 0H170.1L188.322 146.811L202.5 293.622C213.3 272.696 221.063 246.711 225.789 215.667L233.889 134.667L234.9 67.8326L232.878 0H373.624C374.289 25.6522 377.322 55.6891 382.722 90.1109L397.911 178.2L419.165 321.978C424.574 375.304 425.252 423.567 421.2 466.767C416.474 503.893 407.7 545.741 394.878 592.311L356.4 713.811C338.852 771.863 328.726 834.637 326.022 902.133C325.348 934.533 328.048 970.648 334.122 1010.48L354.378 1116.79L363.489 1085.4L422.211 843.411C442.463 754.315 457.989 672.978 468.789 599.4C474.189 564.978 476.889 525.83 476.889 481.956L472.833 363.489L458.667 182.256C452.593 108.678 449.893 47.9261 450.567 0H534.6C533.926 77.6218 542.363 162.674 559.911 255.156L581.165 368.556C589.27 412.43 593.322 450.23 593.322 481.956C593.322 515.03 588.937 547.43 580.167 579.156C572.063 610.874 559.911 640.57 543.711 668.244C503.88 749.244 470.133 837.674 442.467 933.535C418.163 1017.23 397.574 1109.7 380.7 1210.94C374.626 1243.34 371.926 1271.7 372.6 1296ZM0 800.889V256.167L10.1218 312.867L19.2326 370.578L49.6109 551.811L52.6565 572.067L55.6891 602.433C62.437 672.641 43.8739 738.793 0 800.889ZM837.346 0H943.643C940.274 62.7782 940.952 114.415 945.678 154.911L956.824 213.633L973.024 272.367L1019.59 449.556L1063.13 626.733L1070.21 661.167L1072.23 695.589L1041.87 612.567C1029.71 582.189 1016.55 555.526 1002.38 532.578L948.724 446.524L893.022 361.467C882.896 344.593 874.796 324.678 868.722 301.722C863.996 285.522 859.948 264.259 856.578 237.933C845.778 160.985 839.376 81.6739 837.346 0Z" fill="#292845"/>
</svg>
